<?xml version="1.0" encoding="UTF-8"?>
<svg version="1.1" xmlns="http://www.w3.org/2000/svg" width="339" height="339">
<path d="M0 0 C2.48449526 1.98168075 4.90341784 4.02151296 7.3125 6.09375 C14.11633639 11.26466565 20.81575359 12.22896216 29.11328125 12.75 C31.3125 13.09375 31.3125 13.09375 34.3125 15.09375 C34.39824285 19.12366391 34.01238326 21.18298489 31.5234375 24.421875 C24.18395297 32.03879709 16.00727453 36.79689731 5.25 37.53125 C0.89539402 37.46425606 -2.63595528 36.13324977 -6.6875 34.59375 C-12.46171616 32.40116738 -16.54924961 31.31428963 -22.6875 32.09375 C-24.3850735 33.04033437 -26.05908473 34.03259898 -27.6875 35.09375 C-18.27728003 47.46981413 -18.27728003 47.46981413 -8.62890625 59.66015625 C-6.35974422 62.50459879 -4.14704742 65.39051191 -1.9375 68.28125 C2.31227678 73.83712043 6.6480903 79.31955948 11.04833984 84.75708008 C14.40403737 88.91162338 17.59648728 93.14743636 20.6171875 97.5546875 C22.9921243 99.71073611 25.18594403 99.78893257 28.3125 100.09375 C28.29155273 99.41795898 28.27060547 98.74216797 28.24902344 98.04589844 C28.16578357 94.97866746 28.11381534 91.91167418 28.0625 88.84375 C28.02898437 87.78027344 27.99546875 86.71679688 27.9609375 85.62109375 C27.94804687 84.59628906 27.93515625 83.57148437 27.921875 82.515625 C27.90092773 81.57299805 27.87998047 80.63037109 27.85839844 79.65917969 C28.46779562 76.21641325 29.46199749 75.09373933 32.3125 73.09375 C35.34594727 72.71557617 35.34594727 72.71557617 38.87890625 72.88671875 C40.16990234 72.94021484 41.46089844 72.99371094 42.79101562 73.04882812 C44.15235938 73.12602697 45.51368747 73.20350245 46.875 73.28125 C48.20890308 73.34103504 49.54288928 73.39899479 50.87695312 73.45507812 C54.69191813 73.63097884 58.50105797 73.85422617 62.3125 74.09375 C63.40546387 74.14998535 64.49842773 74.2062207 65.62451172 74.26416016 C67.09235107 74.35963135 67.09235107 74.35963135 68.58984375 74.45703125 C69.86009399 74.53304565 69.86009399 74.53304565 71.15600586 74.6105957 C73.86636462 75.21784126 74.77989573 75.76860983 76.3125 78.09375 C76.63183594 80.8527832 76.63183594 80.8527832 76.546875 84.33203125 C76.53436707 84.97908524 76.52185913 85.62613922 76.50897217 86.2928009 C76.45949393 88.56046053 76.38572691 90.82673834 76.3125 93.09375 C76.26690301 94.88718999 76.22201472 96.68064811 76.17773438 98.47412109 C76.04722031 103.39493211 75.87185628 108.3130064 75.67773438 113.23168945 C75.60017798 115.2841407 75.53066356 117.33690991 75.46875 119.38989258 C75.37769229 122.38981717 75.26192132 125.38788332 75.140625 128.38671875 C75.11752258 129.30333786 75.09442017 130.21995697 75.07061768 131.16435242 C75.0308783 132.01656876 74.99113892 132.8687851 74.95019531 133.74682617 C74.92354797 134.49212082 74.89690063 135.23741547 74.8694458 136.0052948 C74.0284528 139.1588803 73.01525228 140.23679795 70.3125 142.09375 C67.21288655 142.57535827 64.18950547 142.4707846 61.0625 142.34375 C60.22203125 142.32570312 59.3815625 142.30765625 58.515625 142.2890625 C56.44742605 142.24205798 54.37981559 142.17031724 52.3125 142.09375 C53.33659528 159.2276503 54.36230265 176.36145324 55.38989925 193.49514389 C55.86705409 201.45163283 56.34369271 209.40815204 56.8190918 217.36474609 C57.23372675 224.30432893 57.64935502 231.24385145 58.06614786 238.18330503 C58.2865489 241.8534715 58.50647167 245.52366516 58.72520256 249.19393158 C58.97013463 253.30353432 59.21728552 257.41300086 59.46459961 261.52246094 C59.53581024 262.72296585 59.60702087 263.92347076 59.6803894 265.16035461 C60.07052964 271.61032424 60.53268971 278.04796174 61.09342289 284.48543167 C61.41670704 288.33443249 61.64506843 292.17049177 61.75 296.03125 C61.79576172 296.74603516 61.84152344 297.46082031 61.88867188 298.19726562 C61.97565615 302.28552678 61.56582367 303.82628911 58.72265625 306.828125 C57.60646248 307.61335147 56.46859449 308.36855026 55.3125 309.09375 C54.219375 309.81175781 53.12625 310.52976562 52 311.26953125 C33.44095188 322.27840383 13.48615082 327.65126334 -7.6875 331.09375 C-8.77699951 331.27260742 -9.86649902 331.45146484 -10.98901367 331.63574219 C-15.09692638 332.14445195 -19.10784347 332.29077826 -23.2421875 332.33203125 C-24.05267548 332.3418251 -24.86316345 332.35161896 -25.69821167 332.36170959 C-63.75870328 332.72646675 -99.87757854 327.4876072 -131.6875 305.09375 C-132.91475586 302.63923827 -132.76155464 301.20235134 -132.671875 298.4609375 C-132.6394873 297.45587158 -132.60709961 296.45080566 -132.57373047 295.4152832 C-132.52877441 294.27792725 -132.48381836 293.14057129 -132.4375 291.96875 C-132.38867676 290.72762451 -132.33985352 289.48649902 -132.28955078 288.20776367 C-132.10875985 283.8354461 -131.90190085 279.46453627 -131.6875 275.09375 C-131.64967407 274.32133972 -131.61184814 273.54892944 -131.57287598 272.75311279 C-130.13823208 243.97545382 -127.7766976 215.27526501 -125.30289459 186.57192612 C-125.06249037 183.7811382 -124.82317359 180.9902584 -124.58392334 178.19937134 C-124.20357493 173.77093854 -123.81856552 169.34293432 -123.42970276 164.91524124 C-123.28473414 163.26038002 -123.14089089 161.60541979 -122.99821472 159.95035934 C-122.8010678 157.66929091 -122.59921678 155.38868854 -122.39599609 153.1081543 C-122.28291107 151.82063766 -122.16982605 150.53312103 -122.05331421 149.20658875 C-121.6875 146.09375 -121.6875 146.09375 -120.6875 143.09375 C-121.24735596 143.09898682 -121.80721191 143.10422363 -122.3840332 143.10961914 C-124.92267737 143.13041691 -127.46130359 143.14341904 -130 143.15625 C-130.88107422 143.16462891 -131.76214844 143.17300781 -132.66992188 143.18164062 C-133.94125977 143.18647461 -133.94125977 143.18647461 -135.23828125 143.19140625 C-136.01856689 143.19664307 -136.79885254 143.20187988 -137.6027832 143.20727539 C-139.6875 143.09375 -139.6875 143.09375 -142.6875 142.09375 C-147.38809656 129.33185 -145.89962871 113.49846601 -145.92773438 100.05224609 C-145.93765464 97.17388198 -145.96890004 94.29617282 -146 91.41796875 C-146.0065128 89.5833375 -146.01176998 87.74870126 -146.015625 85.9140625 C-146.0279718 85.05587921 -146.0403186 84.19769592 -146.05303955 83.31350708 C-146.04394531 80.92236328 -146.04394531 80.92236328 -145.6875 77.09375 C-142.0678054 74.68062027 -139.20387292 74.64330052 -135 74.46875 C-134.22849609 74.43225342 -133.45699219 74.39575684 -132.66210938 74.3581543 C-125.67355224 74.06513447 -118.68156446 73.95766537 -111.6875 73.90625 C-110.63087158 73.89319824 -109.57424316 73.88014648 -108.4855957 73.86669922 C-107.50034912 73.86557129 -106.51510254 73.86444336 -105.5 73.86328125 C-104.17935547 73.85711792 -104.17935547 73.85711792 -102.83203125 73.85083008 C-100.6875 74.09375 -100.6875 74.09375 -98.6875 76.09375 C-98.2734375 79 -98.2734375 79 -98.0625 82.59375 C-97.98902344 83.84414062 -97.91554687 85.09453125 -97.83984375 86.3828125 C-97.65202142 90.95797178 -97.59256998 95.51601337 -97.6875 100.09375 C-92.30636739 98.82528389 -89.68506223 96.37859619 -86.375 92.15625 C-85.8998999 91.57286865 -85.4247998 90.9894873 -84.93530273 90.38842773 C-83.50796559 88.632385 -82.0973073 86.86387522 -80.6875 85.09375 C-79.210734 83.27929348 -77.7317302 81.4666549 -76.25 79.65625 C-75.52683594 78.76808594 -74.80367188 77.87992187 -74.05859375 76.96484375 C-70.34750185 72.47118223 -66.53867814 68.06264344 -62.73828125 63.64453125 C-59.81250596 60.24274803 -56.90098267 56.82919462 -54 53.40625 C-53.55164795 52.87829834 -53.1032959 52.35034668 -52.64135742 51.80639648 C-50.41609296 49.17631678 -48.22115444 46.52732212 -46.0703125 43.8359375 C-45.26335937 42.82789063 -44.45640625 41.81984375 -43.625 40.78125 C-42.91214844 39.87761719 -42.19929688 38.97398438 -41.46484375 38.04296875 C-40.87832031 37.39972656 -40.29179687 36.75648437 -39.6875 36.09375 C-39.0275 36.09375 -38.3675 36.09375 -37.6875 36.09375 C-37.69910156 35.19398437 -37.71070313 34.29421875 -37.72265625 33.3671875 C-37.7813427 25.00017683 -37.66072691 16.64375359 -37.375 8.28125 C-37.34128296 6.84048096 -37.34128296 6.84048096 -37.30688477 5.37060547 C-37.27135498 4.46842285 -37.2358252 3.56624023 -37.19921875 2.63671875 C-37.17303467 1.83258545 -37.14685059 1.02845215 -37.11987305 0.19995117 C-36.58796747 -2.39109873 -35.74935953 -3.29357347 -33.6875 -4.90625 C-22.6144681 -8.20501038 -9.40356767 -6.66997242 0 0 Z " fill="#100C14" transform="translate(200.6875,5.90625)"/>
<path d="M0 0 C5.84215739 0.00576729 11.68426952 0.00235417 17.52642536 -0.00357246 C22.10874263 -0.00720615 26.69104933 -0.00602784 31.27336693 -0.00344467 C33.42799065 -0.00278682 35.5826154 -0.00356288 37.73723793 -0.00592422 C50.07529704 -0.01651532 62.32656713 0.22421625 74.63354492 1.13037109 C74.68913071 2.28589478 74.74471649 3.44141846 74.80198669 4.63195801 C75.93548053 28.16783679 77.21380713 51.68584118 78.77041626 75.19775391 C78.91145646 77.33143122 79.0499902 79.46526088 79.18823242 81.59912109 C79.27186035 82.87207031 79.35548828 84.14501953 79.44165039 85.45654297 C79.71469302 90.68395461 79.72273583 95.89783761 79.63354492 101.13037109 C77.7540918 101.16904297 77.7540918 101.16904297 75.83666992 101.20849609 C74.18559369 101.26478278 72.53455337 101.32213 70.88354492 101.38037109 C70.05854492 101.39455078 69.23354492 101.40873047 68.38354492 101.42333984 C63.38227598 101.60022037 63.38227598 101.60022037 59.11791992 104.05224609 C56.42580186 107.82121139 56.41183986 110.43732917 56.32104492 115.06787109 C56.28366211 116.31439453 56.2462793 117.56091797 56.20776367 118.84521484 C56.28969811 122.14086051 56.28969811 122.14086051 58.34863281 123.80371094 C60.97470184 125.3284528 62.59984745 125.55007544 65.61791992 125.64208984 C66.55249023 125.67753906 67.48706055 125.71298828 68.44995117 125.74951172 C69.41803711 125.77207031 70.38612305 125.79462891 71.38354492 125.81787109 C72.36709961 125.85203125 73.3506543 125.88619141 74.36401367 125.92138672 C76.78707692 126.00372382 79.2097849 126.07291947 81.63354492 126.13037109 C82.37943485 133.12408103 83.03420958 140.12265877 83.63354492 147.13037109 C83.70202637 147.85305176 83.77050781 148.57573242 83.84106445 149.3203125 C83.99851713 151.08728138 84.10001913 152.85900173 84.19604492 154.63037109 C84.29079102 156.06896484 84.29079102 156.06896484 84.38745117 157.53662109 C83.02770777 162.21470202 78.81076007 163.93056092 74.73828125 166.17480469 C72.76551661 167.19032066 70.77377297 168.1395688 68.75854492 169.06787109 C68.02893555 169.40633057 67.29932617 169.74479004 66.54760742 170.09350586 C61.32116375 172.46900953 56.03138396 174.61398157 50.63354492 176.56787109 C49.96468262 176.814646 49.29582031 177.0614209 48.60668945 177.31567383 C45.02902233 178.5591367 41.6577606 179.31956024 37.88354492 179.70092773 C37.08432617 179.78355362 36.28510742 179.8661795 35.46166992 179.9513092 C34.85838867 180.01039963 34.25510742 180.06949005 33.63354492 180.13037109 C33.58343262 178.90108887 33.53332031 177.67180664 33.48168945 176.40527344 C33.29121146 171.77914261 33.0913716 167.15345285 32.88891602 162.52783203 C32.80308769 160.53802923 32.71969029 158.54811984 32.63891602 156.55810547 C32.21921403 127.32689283 32.21921403 127.32689283 17.63354492 103.13037109 C9.62265498 96.54363936 0.42309942 95.57930779 -9.65942383 95.76318359 C-15.00494822 96.29266652 -19.49845545 97.95027773 -24.36645508 100.13037109 C-25.85145508 100.62537109 -25.85145508 100.62537109 -27.36645508 101.13037109 C-27.36645508 101.79037109 -27.36645508 102.45037109 -27.36645508 103.13037109 C-28.72770508 104.21318359 -28.72770508 104.21318359 -30.11645508 105.31787109 C-37.09274777 110.99739409 -38.6769925 118.65566152 -40.36645508 127.13037109 C-40.49938965 127.78005859 -40.63232422 128.42974609 -40.76928711 129.09912109 C-44.09464358 145.9339836 -44.08787773 163.0340329 -44.36645508 180.13037109 C-59.54422834 178.98578011 -72.99048745 173.11570696 -86.36645508 166.13037109 C-87.11217773 165.77692627 -87.85790039 165.42348145 -88.6262207 165.05932617 C-90.81521413 163.90835963 -92.57870957 162.84083165 -94.36645508 161.13037109 C-95.11361854 157.90522972 -95.22843028 156.024271 -94.99145508 152.81787109 C-94.95979248 151.95645508 -94.92812988 151.09503906 -94.89550781 150.20751953 C-94.81137169 148.13780536 -94.70599681 146.06890371 -94.58569336 144.00097656 C-94.37053902 140.20247218 -94.19980227 136.40446542 -94.03979492 132.60334778 C-93.69700577 124.48047572 -93.32614088 116.35876918 -92.90161133 108.23974609 C-92.8629747 107.43650406 -92.82433807 106.63326202 -92.78453064 105.80567932 C-92.48204038 100.24595639 -92.48204038 100.24595639 -91.36645508 99.13037109 C-89.49929991 99.00873109 -87.62793269 98.95066222 -85.75708008 98.91943359 C-84.60981445 98.89107422 -83.46254883 98.86271484 -82.28051758 98.83349609 C-79.85358213 98.78174907 -77.42647725 98.73738007 -74.99926758 98.70068359 C-73.8468457 98.66974609 -72.69442383 98.63880859 -71.50708008 98.60693359 C-69.9220166 98.57720459 -69.9220166 98.57720459 -68.30493164 98.546875 C-64.37559436 97.98992507 -61.51273375 96.60415796 -59.05395508 93.44287109 C-57.40671303 87.90214783 -57.94820773 82.3296029 -60.36645508 77.13037109 C-63.53663181 74.10079974 -65.90879304 73.72878084 -70.22583008 73.61865234 C-71.89838867 73.56547852 -71.89838867 73.56547852 -73.60473633 73.51123047 C-74.76360352 73.48867187 -75.9224707 73.46611328 -77.11645508 73.44287109 C-78.29079102 73.40871094 -79.46512695 73.37455078 -80.67504883 73.33935547 C-83.57208897 73.25691937 -86.46882806 73.18775299 -89.36645508 73.13037109 C-89.47072587 66.57979412 -89.20972856 60.18288077 -88.52661133 53.66943359 C-88.39699257 52.36345718 -88.39699257 52.36345718 -88.26475525 51.03109741 C-87.90070452 47.36471376 -87.52543505 43.69950256 -87.15087891 40.03417969 C-85.8345244 27.07189064 -84.89316187 14.14943756 -84.36645508 1.13037109 C-56.2426461 0.17441203 -28.13860542 -0.02815455 0 0 Z " fill="#B970F8" transform="translate(171.366455078125,145.86962890625)"/>
<path d="M0 0 C0.17158724 2.27046683 0.33697008 4.54140268 0.5 6.8125 C0.5928125 8.07707031 0.685625 9.34164062 0.78125 10.64453125 C0.98849704 14.0244085 1.02252716 17.38617736 1.01367188 20.7722168 C1.011698 21.753853 1.00972412 22.7354892 1.00769043 23.74687195 C1.00515259 24.49040421 1.00261475 25.23393646 1 26 C8.22668699 25.8826006 15.45321771 25.75776587 22.6796875 25.62768555 C25.13961859 25.58429221 27.59958065 25.54262044 30.05957031 25.50268555 C33.58928784 25.44508943 37.11884876 25.38136443 40.6484375 25.31640625 C41.75367767 25.29969376 42.85891785 25.28298126 43.99765015 25.26576233 C45.01855743 25.24581711 46.03946472 25.22587189 47.09130859 25.20532227 C47.99287689 25.18977798 48.89444519 25.1742337 49.82333374 25.15821838 C52.04636301 25.13564908 52.04636301 25.13564908 54 24 C54.33 16.08 54.66 8.16 55 0 C59.53904366 -0.02291161 64.07788802 -0.04283781 68.61694336 -0.05493164 C70.16219766 -0.0599714 71.70744716 -0.0668032 73.25268555 -0.07543945 C75.46925029 -0.08752076 77.68575218 -0.09323173 79.90234375 -0.09765625 C80.5971434 -0.10281754 81.29194305 -0.10797882 82.00779724 -0.11329651 C83.6722933 -0.11349277 85.33665499 -0.06189129 87 0 C92.91138262 5.91138262 88.65197042 16.64729 89 25 C105.83 25 122.66 25 140 25 C141.25838557 22.48322887 141.20818973 20.58706712 141.31640625 17.7734375 C141.35830078 16.7421875 141.40019531 15.7109375 141.44335938 14.6484375 C141.48267578 13.56820312 141.52199219 12.48796875 141.5625 11.375 C141.62727539 9.74304688 141.62727539 9.74304688 141.69335938 8.078125 C141.7996453 5.3855483 141.90168057 2.69287747 142 0 C145.83331699 -0.02929981 149.66660471 -0.04689897 153.5 -0.0625 C154.57765625 -0.07087891 155.6553125 -0.07925781 156.765625 -0.08789062 C158.35117187 -0.09272461 158.35117187 -0.09272461 159.96875 -0.09765625 C161.41411133 -0.10551147 161.41411133 -0.10551147 162.88867188 -0.11352539 C166.64387581 0.02349359 170.2770124 0.49247952 174 1 C174.02485652 6.95906272 174.04293377 12.91809475 174.05493164 18.87719727 C174.05993738 20.90129116 174.06674396 22.92538148 174.07543945 24.94946289 C174.08767059 27.87126552 174.09326605 30.79302004 174.09765625 33.71484375 C174.10281754 34.60896469 174.10797882 35.50308563 174.11329651 36.42430115 C174.11337204 37.2845137 174.11344757 38.14472626 174.11352539 39.03100586 C174.115746 39.77491074 174.11796661 40.51881561 174.12025452 41.28526306 C173.94629596 45.21236471 173.46705507 49.09830206 173 53 C172.27298826 52.99907821 171.54597652 52.99815641 170.79693413 52.99720669 C153.0055957 52.9750028 135.21426008 52.95851659 117.42291069 52.94818783 C108.81871921 52.94305858 100.21453705 52.93608114 91.61035156 52.92456055 C84.10014276 52.91450963 76.58994072 52.90812214 69.07972538 52.90591151 C65.11296509 52.90462184 61.14622409 52.90164916 57.17947006 52.89426994 C41.64233604 52.86646053 26.14071777 52.89606502 10.62207031 53.77514648 C2.46501748 54.22104331 -5.70888018 54.10639496 -13.875 54.0625 C-15.55729028 54.05745833 -17.23958209 54.05290029 -18.921875 54.04882812 C-22.94795599 54.03807159 -26.97395978 54.0209656 -31 54 C-31.87682657 36.32354939 -32.12920302 18.69683879 -32 1 C-10.46808511 -0.19148936 -10.46808511 -0.19148936 0 0 Z " fill="#B86FF8" transform="translate(95,87)"/>
<path d="M0 0 C0.68707031 0.39058594 1.37414062 0.78117188 2.08203125 1.18359375 C9.56234064 6.08257188 12.54084757 13.23891606 14.55810547 21.74121094 C15.39637685 26.0261208 15.77091421 30.33958829 16.125 34.6875 C16.20991699 35.70392578 16.29483398 36.72035156 16.38232422 37.76757812 C17.35942174 50.82962224 17.18209953 63.911246 17 77 C6.67709611 78.67377832 -3.35029731 79.31796762 -13.79833984 79.26074219 C-16.13014512 79.24997624 -18.46118587 79.26073556 -20.79296875 79.2734375 C-29.73369266 79.28052151 -38.19677835 78.70359899 -47 77 C-47.29664046 61.8393909 -47.44154237 46.77938558 -45.75 31.6875 C-45.64067139 30.65318848 -45.53134277 29.61887695 -45.41870117 28.55322266 C-44.04206865 17.52389237 -40.61995321 8.3479115 -32 1 C-22.92777032 -4.84339794 -9.42476643 -5.37681902 0 0 Z " fill="#FDDA0C" transform="translate(181,251)"/>
<path d="M0 0 C2.48449526 1.98168075 4.90341784 4.02151296 7.3125 6.09375 C14.11633639 11.26466565 20.81575359 12.22896216 29.11328125 12.75 C31.3125 13.09375 31.3125 13.09375 34.3125 15.09375 C34.39824285 19.12366391 34.01238326 21.18298489 31.5234375 24.421875 C24.18395297 32.03879709 16.00727453 36.79689731 5.25 37.53125 C0.89539402 37.46425606 -2.63595528 36.13324977 -6.6875 34.59375 C-12.46171616 32.40116738 -16.54924961 31.31428963 -22.6875 32.09375 C-24.3850735 33.04033437 -26.05908473 34.03259898 -27.6875 35.09375 C-18.27728003 47.46981413 -18.27728003 47.46981413 -8.62890625 59.66015625 C-6.35974486 62.504598 -4.14701419 65.39048697 -1.9375 68.28125 C3.69488237 75.64615986 9.4988382 82.87162374 15.3125 90.09375 C13.9925 90.42375 12.6725 90.75375 11.3125 91.09375 C10.51893199 92.84046588 10.51893199 92.84046588 10.3125 95.09375 C11.3025 96.74375 12.2925 98.39375 13.3125 100.09375 C5.0625 100.09375 -3.1875 100.09375 -11.6875 100.09375 C-12.0175 92.50375 -12.3475 84.91375 -12.6875 77.09375 C-16.11503224 75.37998388 -20.04546744 75.9522964 -23.81640625 75.9609375 C-24.72124252 75.95998077 -25.6260788 75.95902405 -26.55833435 75.95803833 C-28.47240264 75.95735727 -30.38647324 75.95920639 -32.30053711 75.96337891 C-35.24142604 75.96873439 -38.18216267 75.96342822 -41.12304688 75.95703125 C-42.97916701 75.95769192 -44.83528704 75.95897286 -46.69140625 75.9609375 C-47.57679581 75.95891327 -48.46218536 75.95688904 -49.37440491 75.95480347 C-53.34785293 75.57015624 -53.34785293 75.57015624 -56.6875 77.09375 C-56.84490605 78.79938778 -56.93843392 80.51102244 -57.00390625 82.22265625 C-57.04201416 83.15408447 -57.08012207 84.0855127 -57.11938477 85.04516602 C-57.18403931 86.83265259 -57.18403931 86.83265259 -57.25 88.65625 C-57.394375 92.430625 -57.53875 96.205 -57.6875 100.09375 C-65.6075 100.09375 -73.5275 100.09375 -81.6875 100.09375 C-79.8089229 95.39730725 -78.50035067 93.50785008 -75.125 89.96875 C-70.90039566 85.44152357 -66.93083598 80.79682059 -63.03515625 75.98046875 C-60.4510768 72.80303994 -57.82975965 69.66032598 -55.1875 66.53125 C-54.49636108 65.7115271 -54.49636108 65.7115271 -53.79125977 64.87524414 C-50.16989396 60.60531362 -46.4106863 56.47763258 -42.5625 52.41015625 C-40.45162364 49.80234441 -39.08715284 47.13362102 -37.6875 44.09375 C-39.9975 44.09375 -42.3075 44.09375 -44.6875 44.09375 C-43.31805898 41.14418472 -41.80919591 38.56906189 -39.6875 36.09375 C-39.0275 36.09375 -38.3675 36.09375 -37.6875 36.09375 C-37.69910156 35.19398437 -37.71070313 34.29421875 -37.72265625 33.3671875 C-37.7813427 25.00017683 -37.66072691 16.64375359 -37.375 8.28125 C-37.34128296 6.84048096 -37.34128296 6.84048096 -37.30688477 5.37060547 C-37.27135498 4.46842285 -37.2358252 3.56624023 -37.19921875 2.63671875 C-37.17303467 1.83258545 -37.14685059 1.02845215 -37.11987305 0.19995117 C-36.58796747 -2.39109873 -35.74935953 -3.29357347 -33.6875 -4.90625 C-22.6144681 -8.20501038 -9.40356767 -6.66997242 0 0 Z " fill="#130D10" transform="translate(200.6875,5.90625)"/>
<path d="M0 0 C1.25472107 0.00607269 1.25472107 0.00607269 2.53479004 0.01226807 C3.39286255 0.01035461 4.25093506 0.00844116 5.13500977 0.00646973 C6.95072726 0.00510763 8.76645449 0.00880579 10.58215332 0.01715088 C13.36736854 0.02785015 16.15193872 0.01725653 18.93713379 0.00445557 C20.69885397 0.00577716 22.46057374 0.00833954 24.22229004 0.01226807 C25.05877075 0.0082196 25.89525146 0.00417114 26.75708008 0 C32.6486217 0.04797473 32.6486217 0.04797473 34.87854004 2.27789307 C36.34366108 11.34865142 36.06118834 20.8005397 36.06604004 29.96539307 C36.07828613 31.22545166 36.09053223 32.48551025 36.10314941 33.78375244 C36.10508301 34.98193604 36.1070166 36.18011963 36.10900879 37.41461182 C36.11311768 38.49444336 36.11722656 39.5742749 36.12145996 40.68682861 C35.87854004 43.27789307 35.87854004 43.27789307 33.87854004 45.27789307 C24.05993985 46.73965096 13.84012924 46.37443183 3.94104004 46.40289307 C2.77314941 46.40756592 1.60525879 46.41223877 0.40197754 46.41705322 C-1.23190918 46.41391113 -1.23190918 46.41391113 -2.89880371 46.41070557 C-3.88098877 46.40957764 -4.86317383 46.40844971 -5.87512207 46.4072876 C-8.12145996 46.27789307 -8.12145996 46.27789307 -9.12145996 45.27789307 C-9.2213507 43.80535273 -9.25226927 42.32803498 -9.25427246 40.85211182 C-9.25636719 39.91907227 -9.25846191 38.98603271 -9.26062012 38.02471924 C-9.25594727 37.0151416 -9.25127441 36.00556396 -9.24645996 34.96539307 C-9.24307617 33.93970215 -9.23969238 32.91401123 -9.23620605 31.85723877 C-9.19009452 24.88849951 -9.04372695 17.9280037 -8.74645996 10.96539307 C-8.71568359 10.1187207 -8.68490723 9.27204834 -8.65319824 8.39971924 C-8.2953289 1.2222858 -7.20645972 0.05868208 0 0 Z " fill="#100B08" transform="translate(111.1214599609375,161.72210693359375)"/>
<path d="M0 0 C0.8098938 -0.0033284 1.6197876 -0.0066568 2.45422363 -0.01008606 C4.16560295 -0.01514584 5.87699212 -0.01749468 7.58837891 -0.01733398 C10.20882342 -0.01952296 12.82884858 -0.03769523 15.44921875 -0.05664062 C17.11197773 -0.05957422 18.7747387 -0.06155924 20.4375 -0.0625 C21.22193481 -0.06968552 22.00636963 -0.07687103 22.8145752 -0.08427429 C26.6503974 -0.06812697 28.45029829 -0.01099906 31.71875 2.16796875 C32.09970093 3.98950195 32.09970093 3.98950195 32.10693359 6.21875 C32.11639008 7.05301514 32.12584656 7.88728027 32.1355896 8.74682617 C32.12951691 9.64892822 32.12344421 10.55103027 32.1171875 11.48046875 C32.12005768 12.40512939 32.12292786 13.32979004 32.12588501 14.2824707 C32.12792849 16.23942679 32.12237882 18.19640318 32.10986328 20.15332031 C32.09381364 23.15606168 32.10970237 26.15745696 32.12890625 29.16015625 C32.12692387 31.05859673 32.1230803 32.95703638 32.1171875 34.85546875 C32.12629654 36.20862183 32.12629654 36.20862183 32.1355896 37.58911133 C32.12613312 38.42337646 32.11667664 39.2576416 32.10693359 40.1171875 C32.10454681 40.85283936 32.10216003 41.58849121 32.09970093 42.34643555 C31.71875 44.16796875 31.71875 44.16796875 28.71875 46.16796875 C26.64428711 46.41088867 26.64428711 46.41088867 24.24609375 46.3984375 C22.90840942 46.39662476 22.90840942 46.39662476 21.54370117 46.39477539 C20.11441284 46.3753186 20.11441284 46.3753186 18.65625 46.35546875 C17.68212158 46.34829834 16.70799316 46.34112793 15.7043457 46.33374023 C9.26556374 46.26303043 2.83660198 46.06578779 -3.59375 45.73046875 C-4.3576001 45.69139404 -5.1214502 45.65231934 -5.90844727 45.61206055 C-11.15445459 45.29476416 -11.15445459 45.29476416 -12.28125 44.16796875 C-12.38169432 42.10222709 -12.41206674 40.033025 -12.4140625 37.96484375 C-12.41535156 36.67320312 -12.41664063 35.3815625 -12.41796875 34.05078125 C-12.41587402 33.37047852 -12.4137793 32.69017578 -12.41162109 31.98925781 C-12.40638001 29.96810465 -12.41203582 27.9469325 -12.41796875 25.92578125 C-12.40978432 17.62677057 -12.05469676 9.43098768 -11.28125 1.16796875 C-7.49763222 -0.09323718 -3.94241158 0.00559283 0 0 Z " fill="#181204" transform="translate(198.28125,161.83203125)"/>
<path d="M0 0 C3.95112095 1.52034184 5.63200643 3.85185198 8.0625 7.25 C8.85258174 8.33709117 9.64432101 9.42297913 10.4375 10.5078125 C10.85257813 11.07790039 11.26765625 11.64798828 11.6953125 12.23535156 C13.92216948 15.24727563 16.24135127 18.18549436 18.5625 21.125 C19.26548218 22.01687012 19.26548218 22.01687012 19.98266602 22.92675781 C22.64192411 26.2951204 25.31572909 29.651523 28 33 C31.2635441 37.07268726 34.51388419 41.15549804 37.75 45.25 C38.21019531 45.82878906 38.67039062 46.40757813 39.14453125 47.00390625 C39.58667969 47.56464844 40.02882813 48.12539062 40.484375 48.703125 C41.06783691 49.44030762 41.06783691 49.44030762 41.66308594 50.19238281 C43.53764469 52.72693961 45.25133469 55.37700204 47 58 C38.75 58 30.5 58 22 58 C21.67 50.41 21.34 42.82 21 35 C17.57246776 33.28623388 13.64203256 33.8585464 9.87109375 33.8671875 C8.96625748 33.86623077 8.0614212 33.86527405 7.12916565 33.86428833 C5.21509736 33.86360727 3.30102676 33.86545639 1.38696289 33.86962891 C-1.55392604 33.87498439 -4.49466267 33.86967822 -7.43554688 33.86328125 C-9.29166701 33.86394192 -11.14778704 33.86522286 -13.00390625 33.8671875 C-13.88929581 33.86516327 -14.77468536 33.86313904 -15.68690491 33.86105347 C-19.66035293 33.47640624 -19.66035293 33.47640624 -23 35 C-23.15740605 36.70563778 -23.25093392 38.41727244 -23.31640625 40.12890625 C-23.35451416 41.06033447 -23.39262207 41.9917627 -23.43188477 42.95141602 C-23.49653931 44.73890259 -23.49653931 44.73890259 -23.5625 46.5625 C-23.706875 50.336875 -23.85125 54.11125 -24 58 C-31.92 58 -39.84 58 -48 58 C-46.1214229 53.30355725 -44.81285067 51.41410008 -41.4375 47.875 C-37.21289566 43.34777357 -33.24333598 38.70307059 -29.34765625 33.88671875 C-22.80352822 25.83994569 -16.05581329 17.97822418 -9.08203125 10.30078125 C-6.01008366 6.90607744 -3.00242735 3.45617039 0 0 Z " fill="#C06CF6" transform="translate(167,48)"/>
<path d="M0 0 C9.35003991 7.88823426 14.26325604 17.63672158 15.49163818 29.83413696 C15.6026257 32.69709166 15.62723145 35.54514308 15.609375 38.41015625 C15.61224518 39.44577194 15.61511536 40.48138763 15.61807251 41.54838562 C15.62009817 43.71723992 15.61467431 45.88611313 15.60205078 48.05493164 C15.58589342 51.36841475 15.60199325 54.68069343 15.62109375 57.99414062 C15.61911265 60.11198184 15.61527175 62.22982232 15.609375 64.34765625 C15.61544769 65.33212234 15.62152039 66.31658844 15.6277771 67.33088684 C15.57314958 72.67458122 15.15461119 76.39458436 12.2109375 81.046875 C11.5509375 81.046875 10.8909375 81.046875 10.2109375 81.046875 C10.1812085 79.91765625 10.1812085 79.91765625 10.15087891 78.765625 C11.53449114 42.37692595 11.53449114 42.37692595 -0.234375 9.4765625 C-7.59694971 2.7059536 -15.54817771 1.66737112 -25.17578125 1.77734375 C-32.34385519 2.31204332 -37.66627323 4.45219657 -42.6640625 9.671875 C-49.38690712 18.27269735 -50.98417647 28.51837318 -52.7890625 39.046875 C-52.985 40.12453125 -53.1809375 41.2021875 -53.3828125 42.3125 C-55.21641515 53.47590439 -55.43016878 64.75777098 -55.7890625 76.046875 C-57.12239583 76.046875 -58.45572917 76.046875 -59.7890625 76.046875 C-59.90627582 66.09476307 -59.63197435 56.20485047 -59.09936523 46.26904297 C-58.97636233 43.91804904 -58.86999414 41.56664347 -58.76367188 39.21484375 C-58.08476921 25.63652291 -56.62857241 13.80752732 -47.2265625 3.30078125 C-45.7890625 2.046875 -45.7890625 2.046875 -43.7890625 2.046875 C-43.7890625 1.386875 -43.7890625 0.726875 -43.7890625 0.046875 C-42.20831686 -0.77064803 -40.62435027 -1.58194497 -39.0390625 -2.390625 C-37.71648437 -3.06931641 -37.71648437 -3.06931641 -36.3671875 -3.76171875 C-25.22677928 -8.9099377 -9.88743536 -6.92397434 0 0 Z " fill="#0C060A" transform="translate(187.7890625,246.953125)"/>
<path d="M0 0 C9.57 0 19.14 0 29 0 C29.81748949 4.08744745 30.11712749 7.28609905 30.09765625 11.39453125 C30.09515869 12.47839111 30.09266113 13.56225098 30.09008789 14.67895508 C30.08098389 16.0430249 30.07187988 17.40709473 30.0625 18.8125 C30.041875 23.164375 30.02125 27.51625 30 32 C19.77 32 9.54 32 -1 32 C-1.020625 27.276875 -1.04125 22.55375 -1.0625 17.6875 C-1.071604 16.20080811 -1.08070801 14.71411621 -1.09008789 13.18237305 C-1.09258545 12.01230713 -1.09508301 10.84224121 -1.09765625 9.63671875 C-1.10289307 8.43748779 -1.10812988 7.23825684 -1.11352539 6.00268555 C-1 3 -1 3 0 0 Z " fill="#FDDA0D" transform="translate(110,169)"/>
<path d="M0 0 C9.57 0 19.14 0 29 0 C29 10.56 29 21.12 29 32 C18.77 32 8.54 32 -2 32 C-1.855625 28.019375 -1.71125 24.03875 -1.5625 19.9375 C-1.51939697 18.69605225 -1.47629395 17.45460449 -1.43188477 16.17553711 C-1.39377686 15.1778833 -1.35566895 14.18022949 -1.31640625 13.15234375 C-1.27974854 12.14163818 -1.24309082 11.13093262 -1.20532227 10.08959961 C-0.98072386 6.70994114 -0.47901014 3.35307099 0 0 Z " fill="#F9D710" transform="translate(194,169)"/>
<path d="M0 0 C13.32884957 -0.56718509 20.5137117 1.5873304 30.70703125 10.10546875 C37.14024767 15.42081792 43.93286862 17.25145921 52 19 C46.6020449 24.87424525 41.42891567 27.50789826 33.625 28.375 C29.41497456 28.35929095 26.03038941 27.00272592 22.125 25.5 C14.09429113 22.45297863 8.3267199 22.33465602 0 24 C0 16.08 0 8.16 0 0 Z " fill="#F53F44" transform="translate(172,7)"/>
<path d="M0 0 C2.97 0 5.94 0 9 0 C9 0.33 9 0.66 9 1 C6.69 1 4.38 1 2 1 C2.33 17.5 2.66 34 3 51 C7.29 51 11.58 51 16 51 C18.606174 51.13160121 21.21148388 51.28981688 23.8125 51.5 C25.58560547 51.63921875 25.58560547 51.63921875 27.39453125 51.78125 C28.25433594 51.8534375 29.11414063 51.925625 30 52 C30 51.34 30 50.68 30 50 C87.09 50 144.18 50 203 50 C203 45.38 203 40.76 203 36 C203.46484375 30.41796875 203.46484375 30.41796875 203.74169922 27.75537109 C204.22315194 22.61957206 204.37000024 17.46581326 204.5625 12.3125 C204.62727539 10.66991211 204.62727539 10.66991211 204.69335938 8.99414062 C204.79808269 6.32951403 204.90025779 3.66481689 205 1 C204.01 0.505 204.01 0.505 203 0 C203.99 0 204.98 0 206 0 C206.02485652 5.95906272 206.04293377 11.91809475 206.05493164 17.87719727 C206.05993738 19.90129116 206.06674396 21.92538148 206.07543945 23.94946289 C206.08767059 26.87126552 206.09326605 29.79302004 206.09765625 32.71484375 C206.10281754 33.60896469 206.10797882 34.50308563 206.11329651 35.42430115 C206.11337204 36.2845137 206.11344757 37.14472626 206.11352539 38.03100586 C206.115746 38.77491074 206.11796661 39.51881561 206.12025452 40.28526306 C205.94629596 44.21236471 205.46705507 48.09830206 205 52 C204.27298826 51.99907821 203.54597652 51.99815641 202.79693413 51.99720669 C185.0055957 51.9750028 167.21426008 51.95851659 149.42291069 51.94818783 C140.81871921 51.94305858 132.21453705 51.93608114 123.61035156 51.92456055 C116.10014276 51.91450963 108.58994072 51.90812214 101.07972538 51.90591151 C97.11296509 51.90462184 93.14622409 51.90164916 89.17947006 51.89426994 C73.64233604 51.86646053 58.14071777 51.89606502 42.62207031 52.77514648 C34.46501748 53.22104331 26.29111982 53.10639496 18.125 53.0625 C16.44270972 53.05745833 14.76041791 53.05290029 13.078125 53.04882812 C9.05204401 53.03807159 5.02604022 53.0209656 1 53 C0.12317343 35.32354939 -0.12920302 17.69683879 0 0 Z " fill="#A46CD2" transform="translate(63,88)"/>
<path d="M0 0 C3.95851252 -0.05373546 7.91630255 -0.0935461 11.875 -0.125 C13.00292969 -0.14175781 14.13085938 -0.15851563 15.29296875 -0.17578125 C16.36933594 -0.18222656 17.44570312 -0.18867188 18.5546875 -0.1953125 C19.54968262 -0.20578613 20.54467773 -0.21625977 21.56982422 -0.22705078 C24 0 24 0 26 2 C26.1953125 4.3828125 26.1953125 4.3828125 26.125 7.125 C26.10695313 8.03507813 26.08890625 8.94515625 26.0703125 9.8828125 C26.04710938 10.58148438 26.02390625 11.28015625 26 12 C22.74246076 13.93709638 20.34390072 14.23715445 16.578125 14.1953125 C15.04091797 14.18564453 15.04091797 14.18564453 13.47265625 14.17578125 C12.40917969 14.15902344 11.34570312 14.14226562 10.25 14.125 C8.63158203 14.11146484 8.63158203 14.11146484 6.98046875 14.09765625 C4.32021751 14.0741142 1.66008051 14.03824397 -1 14 C-0.67 9.38 -0.34 4.76 0 0 Z " fill="#BA6FF8" transform="translate(81,225)"/>
<path d="M0 0 C0.99 0 1.98 0 3 0 C3 7.59 3 15.18 3 23 C-2.94 23 -8.88 23 -15 23 C-16 19 -16 19 -14.4375 15.6875 C-8.56430255 6.25786811 -8.56430255 6.25786811 -3.9375 3.98828125 C-1.66577041 3.02856737 -1.66577041 3.02856737 0 0 Z " fill="#C26BF5" transform="translate(139,82)"/>
<path d="M0 0 C2.97 0 5.94 0 9 0 C9 0.33 9 0.66 9 1 C6.69 1 4.38 1 2 1 C1.67 2.65 1.34 4.3 1 6 C1.66 6 2.32 6 3 6 C2.9285376 6.58120605 2.8570752 7.16241211 2.78344727 7.76123047 C2.01618053 14.57080653 1.88087217 21.27738901 1.9375 28.125 C1.94201172 29.176875 1.94652344 30.22875 1.95117188 31.3125 C1.96281989 33.87506221 1.97917447 36.43749877 2 39 C3.09671021 39.03758423 3.09671021 39.03758423 4.21557617 39.07592773 C7.53971417 39.19222641 10.86359241 39.31479928 14.1875 39.4375 C15.91323242 39.49647461 15.91323242 39.49647461 17.67382812 39.55664062 C19.34155273 39.61948242 19.34155273 39.61948242 21.04296875 39.68359375 C22.06414795 39.72025146 23.08532715 39.75690918 24.13745117 39.79467773 C26.83828463 39.98840063 29.36166128 40.40451953 32 41 C32 41.99 32 42.98 32 44 C27.17619198 44.0246519 22.35242033 44.04283693 17.52856445 44.05493164 C15.88630536 44.05997174 14.24405077 44.06680378 12.60180664 44.07543945 C10.24624521 44.08751926 7.89074291 44.09323139 5.53515625 44.09765625 C4.79660904 44.10281754 4.05806183 44.10797882 3.2971344 44.11329651 C1.53101912 44.1134925 -0.23497146 44.06194719 -2 44 C-3.57683227 42.42316773 -3.1297848 40.83899481 -3.1328125 38.65234375 C-3.13490723 37.74411865 -3.13700195 36.83589355 -3.13916016 35.90014648 C-3.1344873 34.92247314 -3.12981445 33.9447998 -3.125 32.9375 C-3.12161621 31.9462915 -3.11823242 30.95508301 -3.11474609 29.93383789 C-2.95116767 6.34621016 -2.95116767 6.34621016 0 0 Z " fill="#030104" transform="translate(190,162)"/>
<path d="M0 0 C0.35246622 15.95888727 0.35246622 15.95888727 -1.42578125 22.71875 C-4.64363969 35.50262297 -4.58366494 48.9040622 -5 62 C-6.33333333 62 -7.66666667 62 -9 62 C-9.12767315 51.97056464 -8.81235876 42.01372527 -8.25537109 32.00244141 C-8.12403821 29.60746079 -8.00520889 27.21205257 -7.88671875 24.81640625 C-7.80284131 23.26558382 -7.71823215 21.71480075 -7.6328125 20.1640625 C-7.59938751 19.46181549 -7.56596252 18.75956848 -7.53152466 18.03604126 C-7.18775902 12.21945026 -6.74273224 6.11240271 -2.9375 1.5 C-1 0 -1 0 0 0 Z " fill="#060306" transform="translate(137,261)"/>
<path d="M0 0 C3.93265896 -0.04947698 7.86519714 -0.08575578 11.7980957 -0.10986328 C13.79319618 -0.12485495 15.78820946 -0.15026731 17.78320312 -0.17578125 C19.66362305 -0.18544922 19.66362305 -0.18544922 21.58203125 -0.1953125 C22.73936768 -0.20578613 23.8967041 -0.21625977 25.08911133 -0.22705078 C28 0 28 0 31 2 C31.38095093 3.8215332 31.38095093 3.8215332 31.38818359 6.05078125 C31.39764008 6.88504639 31.40709656 7.71931152 31.4168396 8.57885742 C31.41076691 9.48095947 31.40469421 10.38306152 31.3984375 11.3125 C31.40130768 12.23716064 31.40417786 13.16182129 31.40713501 14.11450195 C31.40917849 16.07145804 31.40362882 18.02843443 31.39111328 19.98535156 C31.37506364 22.98809293 31.39095237 25.98948821 31.41015625 28.9921875 C31.40817387 30.89062798 31.4043303 32.78906763 31.3984375 34.6875 C31.40754654 36.04065308 31.40754654 36.04065308 31.4168396 37.42114258 C31.40738312 38.25540771 31.39792664 39.08967285 31.38818359 39.94921875 C31.38579681 40.68487061 31.38341003 41.42052246 31.38095093 42.1784668 C31 44 31 44 28 46 C25.92553711 46.24291992 25.92553711 46.24291992 23.52734375 46.23046875 C22.18965942 46.22865601 22.18965942 46.22865601 20.82495117 46.22680664 C19.39566284 46.20734985 19.39566284 46.20734985 17.9375 46.1875 C16.96337158 46.18032959 15.98924316 46.17315918 14.9855957 46.16577148 C8.54681374 46.09506168 2.11785198 45.89781904 -4.3125 45.5625 C-5.0763501 45.52342529 -5.8402002 45.48435059 -6.62719727 45.4440918 C-11.87320459 45.12679541 -11.87320459 45.12679541 -13 44 C-13.10044432 41.93425834 -13.13081674 39.86505625 -13.1328125 37.796875 C-13.13410156 36.50523437 -13.13539063 35.21359375 -13.13671875 33.8828125 C-13.13462402 33.20250977 -13.1325293 32.52220703 -13.13037109 31.82128906 C-13.12513001 29.8001359 -13.13078582 27.77896375 -13.13671875 25.7578125 C-13.12853432 17.45880182 -12.77344676 9.26301893 -12 1 C-11.34 1 -10.68 1 -10 1 C-10.0721875 2.18851563 -10.144375 3.37703125 -10.21875 4.6015625 C-10.95173965 17.42169521 -11.08232066 30.15797766 -11 43 C8.305 43.495 8.305 43.495 28 44 C28 43.01 28 42.02 28 41 C28.66 41 29.32 41 30 41 C29.75443359 39.49953125 29.75443359 39.49953125 29.50390625 37.96875 C28.65544918 31.18109346 28.89500747 24.32766792 28.9375 17.5 C28.94252467 16.09114742 28.94708587 14.68229311 28.95117188 13.2734375 C28.9628997 9.84891362 28.97931309 6.42447953 29 3 C28.00202393 2.96241577 28.00202393 2.96241577 26.98388672 2.92407227 C23.94742513 2.80748864 20.91122654 2.68504649 17.875 2.5625 C16.82828125 2.52318359 15.7815625 2.48386719 14.703125 2.44335938 C9.72806158 2.23868904 4.89229851 2.00723793 0 1 C0 0.67 0 0.34 0 0 Z " fill="#1E0B32" transform="translate(199,162)"/>
<path d="M0 0 C0.74958984 0.01804688 1.49917969 0.03609375 2.27148438 0.0546875 C4.1190371 0.10175891 5.96593159 0.17350234 7.8125 0.25 C7.8125 4.54 7.8125 8.83 7.8125 13.25 C5.20805652 13.30394705 2.60473002 13.34364469 0 13.375 C-0.73798828 13.39175781 -1.47597656 13.40851563 -2.23632812 13.42578125 C-6.09996426 13.46074628 -7.89653668 13.44397555 -11.1875 11.25 C-11.57378016 7.77347858 -11.64506072 5.24992034 -10.17578125 2.0390625 C-7.12413045 -0.70682368 -3.88079947 -0.17624591 0 0 Z " fill="#BB6FF8" transform="translate(244.1875,252.75)"/>
<path d="M0 0 C3.8295808 3.68415368 7.17759253 7.55729976 10.4375 11.75 C10.91614502 12.36182129 11.39479004 12.97364258 11.88793945 13.60400391 C15.49345712 18.25285411 18.8734932 23.01341953 22 28 C19.69 27.67 17.38 27.34 15 27 C15 33.93 15 40.86 15 48 C20.94 47.67 26.88 47.34 33 47 C32.505 44.03 32.505 44.03 32 41 C34.64752004 43.57784846 36.94432065 45.91648098 39 49 C30.75 49 22.5 49 14 49 C13.67 41.41 13.34 33.82 13 26 C9.61947726 24.30973863 5.77739858 24.75555041 2.0546875 24.68359375 C1.1696756 24.66281265 0.2846637 24.64203156 -0.62716675 24.62062073 C-3.45969741 24.55513402 -6.29232225 24.49624438 -9.125 24.4375 C-11.04297857 24.39431394 -12.96094754 24.35069963 -14.87890625 24.30664062 C-19.58584051 24.19945353 -24.29286967 24.0981836 -29 24 C-29 23.67 -29 23.34 -29 23 C-28.03175293 22.98018066 -27.06350586 22.96036133 -26.06591797 22.93994141 C-22.45384898 22.86353782 -18.84216468 22.77487575 -15.23046875 22.68261719 C-13.67097602 22.64447039 -12.1113996 22.60959318 -10.55175781 22.578125 C-8.30243126 22.53216175 -6.05367385 22.47422192 -3.8046875 22.4140625 C-3.1138205 22.40251129 -2.42295349 22.39096008 -1.71115112 22.37905884 C2.530983 22.25139169 6.04607596 21.53315422 10 20 C9.51333387 15.71733807 8.72573125 13.31828152 6 10 C6 9.34 6 8.68 6 8 C4.35 8 2.7 8 1 8 C0.02391783 5.07175348 -0.08226668 3.04386724 0 0 Z " fill="#AA66D7" transform="translate(175,57)"/>
<path d="M0 0 C-1 2 -1 2 -4 4 C1.61 4 7.22 4 13 4 C13 4.33 13 4.66 13 5 C11.40671875 5.12955078 11.40671875 5.12955078 9.78125 5.26171875 C0.74629814 6.10988046 -6.25316157 6.90396886 -12.69921875 13.82421875 C-16.27283164 18.22850195 -18.27167242 22.62298087 -20 28 C-20.33 28 -20.66 28 -21 28 C-21.33 25.03 -21.66 22.06 -22 19 C-22.99 19.33 -23.98 19.66 -25 20 C-23.14464081 14.74314897 -20.37795095 9.58195987 -16 6 C-15.34 6 -14.68 6 -14 6 C-14 5.34 -14 4.68 -14 4 C-12.42466914 3.13116294 -10.83935491 2.28040932 -9.25 1.4375 C-7.92742187 0.72400391 -7.92742187 0.72400391 -6.578125 -0.00390625 C-3.79298812 -1.07998186 -2.73019786 -1.06528748 0 0 Z " fill="#150D0A" transform="translate(158,243)"/>
<path d="M0 0 C5.35684878 -0.02470696 10.71366444 -0.04286331 16.07055664 -0.05493164 C17.89315366 -0.0599624 19.71574665 -0.06678769 21.53833008 -0.07543945 C24.15707394 -0.08755997 26.77576447 -0.09324086 29.39453125 -0.09765625 C30.61811089 -0.10539818 30.61811089 -0.10539818 31.8664093 -0.11329651 C35.17013929 -0.1136246 37.84323138 -0.05225621 41 1 C41 2.98 41 4.96 41 7 C40.01 7.33 39.02 7.66 38 8 C37.505 6.515 37.505 6.515 37 5 C25.45 5 13.9 5 2 5 C2 5.66 2 6.32 2 7 C1.01 7.33 0.02 7.66 -1 8 C-0.67 5.36 -0.34 2.72 0 0 Z " fill="#020204" transform="translate(146,82)"/>
<path d="M0 0 C0.80179688 0.09990234 1.60359375 0.19980469 2.4296875 0.30273438 C4.41214691 0.5505418 6.39367009 0.80581807 8.375 1.0625 C8.375 1.3925 8.375 1.7225 8.375 2.0625 C2.435 2.3925 -3.505 2.7225 -9.625 3.0625 C-9.625 17.2525 -9.625 31.4425 -9.625 46.0625 C5.94887782 46.92816211 5.94887782 46.92816211 21.5 47.125 C22.56347656 47.12048828 23.62695312 47.11597656 24.72265625 47.11132812 C27.27350519 47.09983781 29.82421589 47.08361039 32.375 47.0625 C31.88 48.0525 31.88 48.0525 31.375 49.0625 C25.59090487 49.08720049 19.80684038 49.10536023 14.02270508 49.11743164 C12.05460068 49.1224635 10.08650003 49.12928958 8.1184082 49.13793945 C5.29116899 49.15005517 2.46397916 49.15573976 -0.36328125 49.16015625 C-1.68529289 49.16789818 -1.68529289 49.16789818 -3.03401184 49.17579651 C-3.85463608 49.17587204 -4.67526031 49.17594757 -5.52075195 49.17602539 C-6.60330009 49.17935631 -6.60330009 49.17935631 -7.7077179 49.18275452 C-9.625 49.0625 -9.625 49.0625 -12.625 48.0625 C-12.67444073 41.86947799 -12.71073905 35.67657091 -12.73486328 29.48339844 C-12.74492034 27.37660725 -12.75856768 25.26983001 -12.77587891 23.16308594 C-12.80014 20.13473059 -12.81148608 17.10655981 -12.8203125 14.078125 C-12.83063507 13.13632385 -12.84095764 12.19452271 -12.85159302 11.22418213 C-12.85174408 10.34357117 -12.85189514 9.46296021 -12.85205078 8.55566406 C-12.856492 7.78289124 -12.86093323 7.01011841 -12.86550903 6.21392822 C-12.59009668 3.75027895 -11.93278181 2.16011031 -10.625 0.0625 C-7.27167665 -1.61416168 -3.61435125 -0.47232999 0 0 Z " fill="#A069CC" transform="translate(196.625,159.9375)"/>
<path d="M0 0 C2.97 0 5.94 0 9 0 C9 0.33 9 0.66 9 1 C6.69 1 4.38 1 2 1 C2.33 17.5 2.66 34 3 51 C7.29 51 11.58 51 16 51 C19.94140092 51.1417588 23.87449305 51.30026558 27.8125 51.5 C28.80314453 51.54769531 29.79378906 51.59539062 30.81445312 51.64453125 C33.20978556 51.76024779 35.60494255 51.8787476 38 52 C38 52.33 38 52.66 38 53 C25.79 53 13.58 53 1 53 C0.17733626 35.31272951 -0.12926113 17.70479694 0 0 Z " fill="#9B65C7" transform="translate(63,88)"/>
<path d="M0 0 C0.80060349 0.00007553 1.60120697 0.00015106 2.42607117 0.00022888 C3.71527214 0.00797081 3.71527214 0.00797081 5.03051758 0.01586914 C5.91411453 0.01728409 6.79771149 0.01869904 7.70808411 0.02015686 C10.53044011 0.0257547 13.3527168 0.03830678 16.17504883 0.05102539 C18.08845914 0.05604067 20.0018707 0.06060353 21.9152832 0.06469727 C26.60606897 0.07572342 31.29679545 0.09298656 35.98754883 0.11352539 C35.65754883 1.10352539 35.32754883 2.09352539 34.98754883 3.11352539 C33.81135986 3.10828857 32.6351709 3.10305176 31.42333984 3.09765625 C27.07552852 3.07960876 22.72772053 3.06809431 18.37988281 3.05859375 C16.49511153 3.05355295 14.61034418 3.04672041 12.72558594 3.03808594 C10.02253247 3.02600922 7.31953052 3.02029471 4.61645508 3.01586914 C3.76853897 3.01070786 2.92062286 3.00554657 2.04701233 3.00022888 C0.02683814 3.00003344 -1.99323051 3.05146328 -4.01245117 3.11352539 C-6.20151515 5.30258937 -5.41864819 10.34554702 -5.54760742 13.39868164 C-5.59058456 14.32950058 -5.63356171 15.26031952 -5.67784119 16.21934509 C-5.81465307 19.20472274 -5.94486829 22.19034768 -6.07495117 25.17602539 C-6.16631508 27.19492524 -6.25810628 29.2138058 -6.3503418 31.23266602 C-6.57601135 36.1927419 -6.7957635 41.15304933 -7.01245117 46.11352539 C-7.34245117 46.11352539 -7.67245117 46.11352539 -8.01245117 46.11352539 C-8.2188407 13.39284736 -8.2188407 13.39284736 -7.01245117 1.11352539 C-4.30620747 0.21144416 -2.77394132 -0.0087506 0 0 Z " fill="#9363BD" transform="translate(109.012451171875,159.886474609375)"/>
<path d="M0 0 C1.25472107 0.00607269 1.25472107 0.00607269 2.53479004 0.01226807 C3.39286255 0.01035461 4.25093506 0.00844116 5.13500977 0.00646973 C6.95072726 0.00510763 8.76645449 0.00880579 10.58215332 0.01715088 C13.36736854 0.02785015 16.15193872 0.01725653 18.93713379 0.00445557 C20.69885397 0.00577716 22.46057374 0.00833954 24.22229004 0.01226807 C25.05877075 0.0082196 25.89525146 0.00417114 26.75708008 0 C32.6486217 0.04797473 32.6486217 0.04797473 34.87854004 2.27789307 C36.36988915 11.39660443 36.00396269 20.87948457 35.94104004 30.09039307 C35.93652832 31.36720947 35.9320166 32.64402588 35.92736816 33.95953369 C35.91573456 37.06570518 35.89939079 40.17177215 35.87854004 43.27789307 C35.54854004 43.27789307 35.21854004 43.27789307 34.87854004 43.27789307 C33.88854004 23.47789307 33.88854004 23.47789307 32.87854004 3.27789307 C27.79827444 2.64285987 23.35857503 2.15041052 18.33166504 2.14508057 C17.1573291 2.1437915 15.98299316 2.14250244 14.77307129 2.14117432 C12.96902832 2.1469751 12.96902832 2.1469751 11.12854004 2.15289307 C9.91037598 2.14902588 8.69221191 2.14515869 7.43713379 2.14117432 C6.2679541 2.14246338 5.09877441 2.14375244 3.89416504 2.14508057 C2.83487793 2.1462085 1.77559082 2.14733643 0.6842041 2.14849854 C-1.75808338 2.26113449 -3.79222182 2.57267875 -6.12145996 3.27789307 C-6.10083496 4.32976807 -6.08020996 5.38164307 -6.05895996 6.46539307 C-6.11042798 9.6049421 -6.38663183 12.24672703 -7.12145996 15.27789307 C-7.45145996 15.27789307 -7.78145996 15.27789307 -8.12145996 15.27789307 C-8.17532625 13.15316731 -8.21419067 11.02805654 -8.24645996 8.90289307 C-8.26966309 7.71953369 -8.29286621 6.53617432 -8.31677246 5.31695557 C-7.94998713 -0.39022415 -5.0013693 0.04072607 0 0 Z " fill="#200F35" transform="translate(111.1214599609375,161.72210693359375)"/>
<path d="M0 0 C0 4.06166652 -1.14053309 7.39776912 -3 11 C-5.1875 12.5 -5.1875 12.5 -7 13 C-7 14.32 -7 15.64 -7 17 C-7.0646802 18.80760518 -7.13843986 20.61489678 -7.21875 22.421875 C-7.25935547 23.34581055 -7.29996094 24.26974609 -7.34179688 25.22167969 C-7.39400391 26.38602539 -7.44621094 27.55037109 -7.5 28.75 C-7.665 32.4625 -7.83 36.175 -8 40 C-15.92 40 -23.84 40 -32 40 C-30 35 -30 35 -27 33 C-27 34.98 -27 36.96 -27 39 C-21.06 39 -15.12 39 -9 39 C-9 31.41 -9 23.82 -9 16 C-12.39914975 17.13304992 -13.05254451 18.12518475 -15 21 C-15.66 20.67 -16.32 20.34 -17 20 C-16.19175781 19.05898437 -15.38351563 18.11796875 -14.55078125 17.1484375 C-13.47133178 15.89064421 -12.39190596 14.63283063 -11.3125 13.375 C-10.78205078 12.75753906 -10.25160156 12.14007813 -9.70507812 11.50390625 C-6.43774572 7.69535927 -3.20310202 3.86273898 0 0 Z " fill="#A767D2" transform="translate(151,66)"/>
<path d="M0 0 C5.53748986 5.53748986 5.62979748 16.40819663 6.1875 23.875 C6.26790527 24.87789063 6.34831055 25.88078125 6.43115234 26.9140625 C7.36130204 39.92425863 7.181338 52.96598282 7 66 C5.35 66 3.7 66 2 66 C3.485 65.505 3.485 65.505 5 65 C4.47832041 37.43932416 4.47832041 37.43932416 2 10 C1.34 10 0.68 10 0 10 C0 6.7 0 3.4 0 0 Z " fill="#C6AF2B" transform="translate(191,262)"/>
<path d="M0 0 C9.57 0 19.14 0 29 0 C29.81748949 4.08744745 30.11712749 7.28609905 30.09765625 11.39453125 C30.09443359 12.59658203 30.09121094 13.79863281 30.08789062 15.03710938 C30.07951172 16.28298828 30.07113281 17.52886719 30.0625 18.8125 C30.05798828 20.07771484 30.05347656 21.34292969 30.04882812 22.64648438 C30.03706251 25.7643711 30.02062272 28.88216133 30 32 C26.37 32 22.74 32 19 32 C19 31.67 19 31.34 19 31 C22.3 31 25.6 31 29 31 C28.7525 28.586875 28.7525 28.586875 28.5 26.125 C27.786403 17.74274786 27.93630418 9.40784843 28 1 C19.42 1 10.84 1 2 1 C2 5.29 2 9.58 2 14 C1.01 15.32 0.02 16.64 -1 18 C-1.02698422 15.56242587 -1.04683099 13.12515085 -1.0625 10.6875 C-1.07087891 9.99720703 -1.07925781 9.30691406 -1.08789062 8.59570312 C-1.10307906 5.4516975 -1.00193327 3.00579981 0 0 Z " fill="#D4BC32" transform="translate(110,169)"/>
<path d="M0 0 C3.95851252 -0.05373546 7.91630255 -0.0935461 11.875 -0.125 C13.00292969 -0.14175781 14.13085938 -0.15851563 15.29296875 -0.17578125 C16.36933594 -0.18222656 17.44570312 -0.18867188 18.5546875 -0.1953125 C19.54968262 -0.20578613 20.54467773 -0.21625977 21.56982422 -0.22705078 C24 0 24 0 26 2 C26.1953125 4.3828125 26.1953125 4.3828125 26.125 7.125 C26.10695313 8.03507813 26.08890625 8.94515625 26.0703125 9.8828125 C26.04710938 10.58148438 26.02390625 11.28015625 26 12 C22.74246076 13.93709638 20.34390072 14.23715445 16.578125 14.1953125 C15.04091797 14.18564453 15.04091797 14.18564453 13.47265625 14.17578125 C12.40917969 14.15902344 11.34570312 14.14226562 10.25 14.125 C8.63158203 14.11146484 8.63158203 14.11146484 6.98046875 14.09765625 C4.32021751 14.0741142 1.66008051 14.03824397 -1 14 C-0.67 9.38 -0.34 4.76 0 0 Z M1 3 C0.9020943 4.49738124 0.87025136 5.99942892 0.875 7.5 C0.87242188 8.3146875 0.86984375 9.129375 0.8671875 9.96875 C0.7754822 11.99530377 0.7754822 11.99530377 2 13 C3.37999937 13.09865116 4.76491799 13.13079023 6.1484375 13.1328125 C6.98890625 13.13410156 7.829375 13.13539063 8.6953125 13.13671875 C9.57960938 13.13285156 10.46390625 13.12898437 11.375 13.125 C12.68984375 13.13080078 12.68984375 13.13080078 14.03125 13.13671875 C14.87429687 13.13542969 15.71734375 13.13414062 16.5859375 13.1328125 C17.74681885 13.13112061 17.74681885 13.13112061 18.93115234 13.12939453 C21.19826574 13.07635147 21.19826574 13.07635147 24 12 C24.02689216 10.52093108 24.04634621 9.04172517 24.0625 7.5625 C24.07410156 6.73878906 24.08570312 5.91507813 24.09765625 5.06640625 C24.23267348 3.00836062 24.23267348 3.00836062 23 2 C21.45044441 1.90100477 19.89646327 1.86920476 18.34375 1.8671875 C16.93416016 1.86525391 16.93416016 1.86525391 15.49609375 1.86328125 C14.50738281 1.86714844 13.51867187 1.87101563 12.5 1.875 C11.51128906 1.87113281 10.52257812 1.86726562 9.50390625 1.86328125 C8.09431641 1.86521484 8.09431641 1.86521484 6.65625 1.8671875 C5.35397461 1.86887939 5.35397461 1.86887939 4.02539062 1.87060547 C2.00395846 1.7758463 2.00395846 1.7758463 1 3 Z " fill="#8D5EB6" transform="translate(81,225)"/>
<path d="M0 0 C0.33 0 0.66 0 1 0 C2.16421369 6.97558037 2.35155202 13.93619598 2.60546875 20.99414062 C2.64285156 21.93580078 2.68023437 22.87746094 2.71875 23.84765625 C2.74904297 24.69336182 2.77933594 25.53906738 2.81054688 26.41040039 C2.95658531 29.04633877 2.95658531 29.04633877 3.51147461 31.79321289 C4.10603976 35.69606812 4.12451061 39.52490036 4.09765625 43.4609375 C4.0962413 44.25150543 4.09482635 45.04207336 4.09336853 45.8565979 C4.08780504 48.36277166 4.07525944 50.86885358 4.0625 53.375 C4.05748028 55.08202995 4.0529182 56.78906132 4.04882812 58.49609375 C4.03784759 62.66409748 4.02060839 66.83203321 4 71 C3.67 71 3.34 71 3 71 C2.56465777 63.94277819 2.13851933 56.88504028 1.71826172 49.8269043 C1.5747866 47.43452892 1.4293371 45.04227099 1.28173828 42.65014648 C0.40490484 28.41502401 -0.23502439 14.26358666 0 0 Z " fill="#170826" transform="translate(246,148)"/>
<path d="M0 0 C18.69814365 -0.57962099 18.69814365 -0.57962099 26 3 C26.825 3.37511719 27.65 3.75023437 28.5 4.13671875 C33.15246637 6.4411435 33.15246637 6.4411435 35 8 C35.75 10.6640625 35.75 10.6640625 36 13 C35.56171875 12.61328125 35.1234375 12.2265625 34.671875 11.828125 C25.68098439 4.44536116 16.15275126 2.30156247 4.640625 2.59765625 C-1.39687843 3.26489107 -6.60541266 5.30270633 -12 8 C-12 7.01 -12 6.02 -12 5 C-11.01 5 -10.02 5 -9 5 C-9 4.34 -9 3.68 -9 3 C-4.545 2.505 -4.545 2.505 0 2 C0 1.34 0 0.68 0 0 Z " fill="#AB71DC" transform="translate(157,239)"/>
<path d="M0 0 C4.68139254 -0.02465288 9.36274759 -0.04283739 14.04418945 -0.05493164 C15.63794614 -0.05997157 17.23169819 -0.0668035 18.82543945 -0.07543945 C21.11150253 -0.08751999 23.39750467 -0.09323155 25.68359375 -0.09765625 C26.40026718 -0.10281754 27.11694061 -0.10797882 27.85533142 -0.11329651 C29.57063672 -0.11349263 31.28581266 -0.06192007 33 0 C34.60836217 1.60836217 34.20307572 3.39707703 34.28125 5.62109375 C34.33732422 7.02391602 34.33732422 7.02391602 34.39453125 8.45507812 C34.44673828 9.93137695 34.44673828 9.93137695 34.5 11.4375 C34.56874617 13.37385048 34.64146875 15.31006513 34.71875 17.24609375 C34.74904297 18.10904053 34.77933594 18.9719873 34.81054688 19.86108398 C34.87283144 22.05112555 34.87283144 22.05112555 36 24 C47.55 24.33 59.1 24.66 71 25 C71 25.33 71 25.66 71 26 C58.46 26 45.92 26 33 26 C32.67 18.08 32.34 10.16 32 2 C21.44 1.67 10.88 1.34 0 1 C0 0.67 0 0.34 0 0 Z " fill="#0B0015" transform="translate(150,86)"/>
<path d="M0 0 C0.74958984 0.01804688 1.49917969 0.03609375 2.27148438 0.0546875 C4.1190371 0.10175891 5.96593159 0.17350234 7.8125 0.25 C7.8125 4.54 7.8125 8.83 7.8125 13.25 C5.20805652 13.30394705 2.60473002 13.34364469 0 13.375 C-0.73798828 13.39175781 -1.47597656 13.40851563 -2.23632812 13.42578125 C-6.09996426 13.46074628 -7.89653668 13.44397555 -11.1875 11.25 C-11.57378016 7.77347858 -11.64506072 5.24992034 -10.17578125 2.0390625 C-7.12413045 -0.70682368 -3.88079947 -0.17624591 0 0 Z M-8.1875 1.25 C-8.5175 3.89 -8.8475 6.53 -9.1875 9.25 C-5.66070901 11.60119399 -4.15870515 11.46443452 0 11.375 C1.63001953 11.34792969 1.63001953 11.34792969 3.29296875 11.3203125 C4.12441406 11.29710937 4.95585937 11.27390625 5.8125 11.25 C5.8125 8.28 5.8125 5.31 5.8125 2.25 C1.14048795 1.04431947 -3.40246292 1.15617574 -8.1875 1.25 Z " fill="#8D5BB4" transform="translate(244.1875,252.75)"/>
<path d="M0 0 C0 0.99 0 1.98 0 3 C-1.32 3.33 -2.64 3.66 -4 4 C-4 4.66 -4 5.32 -4 6 C-7.01031744 6.93423645 -7.86650268 7.04449911 -11 6 C-12.40664926 5.85507877 -13.8181133 5.75371069 -15.23046875 5.68359375 C-16.03291016 5.64169922 -16.83535156 5.59980469 -17.66210938 5.55664062 C-18.49548828 5.51732422 -19.32886719 5.47800781 -20.1875 5.4375 C-21.03248047 5.39431641 -21.87746094 5.35113281 -22.74804688 5.30664062 C-24.83184433 5.20068482 -26.91590103 5.0998498 -29 5 C-29.33 10.28 -29.66 15.56 -30 21 C-30.33 21 -30.66 21 -31 21 C-31.02684312 18.18743719 -31.04676188 15.37512759 -31.0625 12.5625 C-31.07087891 11.76005859 -31.07925781 10.95761719 -31.08789062 10.13085938 C-31.0965143 8.08704779 -31.0522815 6.04316098 -31 4 C-29.24394844 2.24394844 -26.74110537 2.80783228 -24.35546875 2.75390625 C-23.20369141 2.72103516 -22.05191406 2.68816406 -20.86523438 2.65429688 C-18.42521768 2.59339364 -15.98510894 2.53606674 -13.54492188 2.48242188 C-12.38927734 2.44826172 -11.23363281 2.41410156 -10.04296875 2.37890625 C-8.98102295 2.3538501 -7.91907715 2.32879395 -6.82495117 2.30297852 C-4.05548871 2.00595121 -2.36516375 1.42336942 0 0 Z " fill="#8B5BB5" transform="translate(110,242)"/>
<path d="M0 0 C0.80179688 0.09990234 1.60359375 0.19980469 2.4296875 0.30273438 C4.41214691 0.5505418 6.39367009 0.80581807 8.375 1.0625 C8.375 1.3925 8.375 1.7225 8.375 2.0625 C2.435 2.3925 -3.505 2.7225 -9.625 3.0625 C-9.6146875 4.89167969 -9.604375 6.72085938 -9.59375 8.60546875 C-9.59375 16.20318426 -9.8408413 23.78335483 -10.125 31.375 C-10.17339047 32.71288292 -10.22156855 34.05077355 -10.26953125 35.38867188 C-10.38594608 38.61336275 -10.50446846 41.83796083 -10.625 45.0625 C-10.955 45.0625 -11.285 45.0625 -11.625 45.0625 C-11.81748585 39.29705425 -11.99617352 33.5314078 -12.16210938 27.76513672 C-12.22049342 25.8037572 -12.28264082 23.84248594 -12.34863281 21.88134766 C-12.44285821 19.06172393 -12.52352438 16.24198743 -12.6015625 13.421875 C-12.63375885 12.54569519 -12.6659552 11.66951538 -12.6991272 10.76678467 C-12.71929901 9.94623596 -12.73947083 9.12568726 -12.76025391 8.28027344 C-12.78246002 7.56079529 -12.80466614 6.84131714 -12.82754517 6.10003662 C-12.58680829 3.67830415 -11.90415982 2.12337832 -10.625 0.0625 C-7.27167665 -1.61416168 -3.61435125 -0.47232999 0 0 Z " fill="#8D5DB7" transform="translate(196.625,159.9375)"/>
<path d="M0 0 C3.95099928 -0.0246985 7.90196874 -0.04285923 11.85302734 -0.05493164 C13.85906551 -0.06244036 15.86508202 -0.0751447 17.87109375 -0.08789062 C19.75634766 -0.09272461 19.75634766 -0.09272461 21.6796875 -0.09765625 C23.42354736 -0.10551147 23.42354736 -0.10551147 25.20263672 -0.11352539 C28 0 28 0 30 1 C30 11.56 30 22.12 30 33 C29.67 33 29.34 33 29 33 C29 23.1 29 13.2 29 3 C21.70108835 2.71176699 21.70108835 2.71176699 14.40185547 2.43188477 C9.5281594 2.2297755 4.79273774 1.98674012 0 1 C0 0.67 0 0.34 0 0 Z " fill="#140623" transform="translate(199,162)"/>
<path d="M0 0 C0.33 0 0.66 0 1 0 C1.94739843 14.34631904 2.11029483 28.62490743 2 43 C5.63 42.34 9.26 41.68 13 41 C12.67 41.66 12.34 42.32 12 43 C8.01624339 44.17169312 4.12560776 44.08089427 0 44 C-0.92645446 41.22063662 -1.10056322 39.74256078 -1.02172852 36.89575195 C-1.00163223 36.07512772 -0.98153595 35.25450348 -0.96083069 34.40901184 C-0.93379562 33.52767075 -0.90676056 32.64632965 -0.87890625 31.73828125 C-0.85529526 30.83248825 -0.83168427 29.92669525 -0.80735779 28.99345398 C-0.73076856 26.09964135 -0.64672369 23.20609952 -0.5625 20.3125 C-0.50927458 18.35092472 -0.45653421 16.38933622 -0.40429688 14.42773438 C-0.27515978 9.61831801 -0.13933558 4.80913127 0 0 Z " fill="#371E4F" transform="translate(203,283)"/>
<path d="M0 0 C0.33 0 0.66 0 1 0 C2.26842884 17.35824629 3.3494856 34.5839674 3 52 C2.67 52 2.34 52 2 52 C0.07458196 40.4507478 -0.24606723 29.24777163 -0.125 17.5625 C-0.1149366 15.8483126 -0.10581676 14.13411939 -0.09765625 12.41992188 C-0.07593996 8.27980055 -0.04160128 4.13996728 0 0 Z " fill="#9764C2" transform="translate(246,167)"/>
<path d="M0 0 C0.99 0.33 1.98 0.66 3 1 C3 15.19 3 29.38 3 44 C-2.04666669 46.01866667 -4.07863904 46.11414588 -9.3125 45.625 C-10.56675781 45.51414063 -11.82101563 45.40328125 -13.11328125 45.2890625 C-14.06589844 45.19367188 -15.01851562 45.09828125 -16 45 C-16 44.67 -16 44.34 -16 44 C-14.85660156 43.93941406 -13.71320313 43.87882812 -12.53515625 43.81640625 C-11.04425695 43.73201572 -9.55337225 43.64736698 -8.0625 43.5625 C-7.30775391 43.52318359 -6.55300781 43.48386719 -5.77539062 43.44335938 C-2.08055813 43.55961976 -2.08055813 43.55961976 1 42 C1.10029343 40.09196488 1.13081464 38.18019941 1.1328125 36.26953125 C1.13474609 35.0794043 1.13667969 33.88927734 1.13867188 32.66308594 C1.13416016 31.39239258 1.12964844 30.12169922 1.125 28.8125 C1.12306641 27.53793945 1.12113281 26.26337891 1.11914062 24.95019531 C1.08069614 16.5927915 0.87548725 8.31712887 0 0 Z " fill="#AD72DF" transform="translate(145,163)"/>
<path d="M0 0 C4.04128452 -0.1457733 8.08188906 -0.23423181 12.125 -0.3125 C13.83816406 -0.3753418 13.83816406 -0.3753418 15.5859375 -0.43945312 C25.09075657 -0.57760456 25.09075657 -0.57760456 28.75 2.375 C31.19012277 5.2218099 31.82841637 6.31095199 32 10 C32.1546875 11.9490625 32.1546875 11.9490625 32.3125 13.9375 C32.27197418 18.20892107 30.77777605 20.73202818 28 24 C27.34 24 26.68 24 26 24 C26 23.34 26 22.68 26 22 C26.66 22 27.32 22 28 22 C29.14077657 18.57767028 29.09815117 15.91326783 29.0625 12.3125 C29.05347656 11.13300781 29.04445313 9.95351562 29.03515625 8.73828125 C29.02355469 7.83464844 29.01195313 6.93101562 29 6 C26.69 5.34 24.38 4.68 22 4 C22 3.01 22 2.02 22 1 C14.74 1 7.48 1 0 1 C0 0.67 0 0.34 0 0 Z " fill="#1F0C31" transform="translate(82,219)"/>
<path d="M0 0 C0.33 0 0.66 0 1 0 C1.66433182 9.34809779 2.1598655 18.62122392 2 28 C-1.12401779 28.22537111 -4.24911333 28.42738648 -7.375 28.625 C-8.26445312 28.68945312 -9.15390625 28.75390625 -10.0703125 28.8203125 C-10.92109375 28.871875 -11.771875 28.9234375 -12.6484375 28.9765625 C-13.82672119 29.05511475 -13.82672119 29.05511475 -15.02880859 29.13525391 C-17 29 -17 29 -19 27 C-15.23508833 25.74502944 -11.72793525 25.89338352 -7.8125 25.9375 C-5.234375 25.958125 -2.65625 25.97875 0 26 C0 17.42 0 8.84 0 0 Z " fill="#9A63C8" transform="translate(249,219)"/>
<path d="M0 0 C1.32 0.33 2.64 0.66 4 1 C3.236875 2.0725 2.47375 3.145 1.6875 4.25 C-3.9626039 13.34762493 -4.69058769 24.58632096 -6 35 C-6.33 35 -6.66 35 -7 35 C-7.69681398 13.51490236 -7.69681398 13.51490236 -3 6 C-2.34 5.67 -1.68 5.34 -1 5 C-0.34444881 2.47266765 -0.34444881 2.47266765 0 0 Z " fill="#9561C0" transform="translate(135,252)"/>
<path d="M0 0 C0.33 0 0.66 0 1 0 C1.06058594 1.19238281 1.12117187 2.38476562 1.18359375 3.61328125 C1.26801149 5.17969925 1.35265887 6.74610488 1.4375 8.3125 C1.47681641 9.09818359 1.51613281 9.88386719 1.55664062 10.69335938 C1.59853516 11.45068359 1.64042969 12.20800781 1.68359375 12.98828125 C1.73858032 14.03302612 1.73858032 14.03302612 1.79467773 15.09887695 C1.95581153 17.2216572 1.95581153 17.2216572 3 20 C4.98 20 6.96 20 9 20 C9 20.99 9 21.98 9 23 C10.98 23 12.96 23 15 23 C15 23.33 15 23.66 15 24 C10.05 24 5.1 24 0 24 C0 16.08 0 8.16 0 0 Z " fill="#F6D81E" transform="translate(193,176)"/>
<path d="M0 0 C0.80566406 0.00322266 1.61132812 0.00644531 2.44140625 0.00976562 C3.70404297 0.02233398 3.70404297 0.02233398 4.9921875 0.03515625 C5.84167969 0.03966797 6.69117188 0.04417969 7.56640625 0.04882812 C9.66669659 0.06062751 11.7669508 0.07856319 13.8671875 0.09765625 C13.8671875 0.42765625 13.8671875 0.75765625 13.8671875 1.09765625 C12.45566406 1.11892578 12.45566406 1.11892578 11.015625 1.140625 C3.00153487 1.13945995 3.00153487 1.13945995 -3.9453125 4.53515625 C-6.12365237 6.87885003 -6.12365237 6.87885003 -7.1328125 9.09765625 C-7.7928125 9.09765625 -8.4528125 9.09765625 -9.1328125 9.09765625 C-8.8028125 13.38765625 -8.4728125 17.67765625 -8.1328125 22.09765625 C-8.7928125 21.76765625 -9.4528125 21.43765625 -10.1328125 21.09765625 C-10.82158801 7.13081952 -10.82158801 7.13081952 -8.2578125 3.28515625 C-5.39539526 0.33855026 -3.97153809 -0.02796858 0 0 Z " fill="#160828" transform="translate(237.1328125,246.90234375)"/>
<path d="M0 0 C3.3 0.66 6.6 1.32 10 2 C4.47650221 8.01086524 -0.80318534 10.79692832 -8.875 11.1875 C-12.55332053 11.1530588 -15.56709881 10.37316047 -19 9 C-14.3720688 7.53408462 -9.47951935 7.65700026 -4.66796875 7.48242188 C-0.37312724 7.41440907 -0.37312724 7.41440907 3 5 C3.99 5 4.98 5 6 5 C6 4.34 6 3.68 6 3 C3.03 2.505 3.03 2.505 0 2 C0 1.34 0 0.68 0 0 Z " fill="#D34143" transform="translate(214,24)"/>
<path d="M0 0 C1.23105469 0.01417969 2.46210938 0.02835937 3.73046875 0.04296875 C5.56544922 0.05263672 5.56544922 0.05263672 7.4375 0.0625 C10.39459674 0.20521062 13.0464344 0.5467701 15.91796875 1.23046875 C15.91796875 1.89046875 15.91796875 2.55046875 15.91796875 3.23046875 C16.90796875 3.23046875 17.89796875 3.23046875 18.91796875 3.23046875 C18.91796875 3.89046875 18.91796875 4.55046875 18.91796875 5.23046875 C17.34015625 4.73546875 17.34015625 4.73546875 15.73046875 4.23046875 C9.83650775 2.72246431 3.96420593 3.10450548 -2.08203125 3.23046875 C-2.41203125 7.52046875 -2.74203125 11.81046875 -3.08203125 16.23046875 C-3.41203125 16.23046875 -3.74203125 16.23046875 -4.08203125 16.23046875 C-4.30330223 13.94001507 -4.50868165 11.64802111 -4.70703125 9.35546875 C-4.82304687 8.07929688 -4.9390625 6.803125 -5.05859375 5.48828125 C-5.07019531 3.87566406 -5.07019531 3.87566406 -5.08203125 2.23046875 C-3.08203125 0.23046875 -3.08203125 0.23046875 0 0 Z " fill="#240303" transform="translate(174.08203125,4.76953125)"/>
<path d="M0 0 C-1.11375 0.45375 -2.2275 0.9075 -3.375 1.375 C-6.96199008 2.72465986 -6.96199008 2.72465986 -9 5 C-12.73709471 8.46410794 -16.02253379 11.49167691 -21 13 C-19.71480435 10.13302508 -18.42870746 8.02392288 -16 6 C-15.34 6 -14.68 6 -14 6 C-14 5.34 -14 4.68 -14 4 C-12.42466914 3.13116294 -10.83935491 2.28040932 -9.25 1.4375 C-8.36828125 0.96183594 -7.4865625 0.48617187 -6.578125 -0.00390625 C-3.79298812 -1.07998186 -2.73019786 -1.06528748 0 0 Z " fill="#200D30" transform="translate(158,243)"/>
<path d="M0 0 C0.33 0 0.66 0 1 0 C1 3.63 1 7.26 1 11 C6.94 10.67 12.88 10.34 19 10 C18.67 8.02 18.34 6.04 18 4 C20.64752004 6.57784846 22.94432065 8.91648098 25 12 C16.75 12 8.5 12 0 12 C0 8.04 0 4.08 0 0 Z " fill="#9A67BA" transform="translate(189,94)"/>
<path d="M0 0 C0.66 0 1.32 0 2 0 C1.67 0.99 1.34 1.98 1 3 C-12.53 3 -26.06 3 -40 3 C-40 2.67 -40 2.34 -40 2 C-38.82381104 1.97494385 -37.64762207 1.9498877 -36.43579102 1.92407227 C-32.08785378 1.83017194 -27.74008284 1.72990952 -23.39233398 1.62768555 C-21.50760782 1.58427067 -19.62284064 1.54260057 -17.73803711 1.50268555 C-15.03486751 1.44514107 -12.33190564 1.38140196 -9.62890625 1.31640625 C-8.78099014 1.29969376 -7.93307404 1.28298126 -7.0594635 1.26576233 C-3.21707924 1.53590805 -3.21707924 1.53590805 0 0 Z " fill="#060012" transform="translate(144,204)"/>
<path d="M0 0 C0.33 0 0.66 0 1 0 C0.85915204 1.79206547 0.71216299 3.58364917 0.5625 5.375 C0.48128906 6.37273437 0.40007812 7.37046875 0.31640625 8.3984375 C0 11 0 11 -1 13 C-1.66 13 -2.32 13 -3 13 C-4.4783226 10.04335481 -4.06032783 7.25770263 -4 4 C-3.34 4 -2.68 4 -2 4 C-1.34 2.68 -0.68 1.36 0 0 Z " fill="#020206" transform="translate(232,252)"/>
<path d="M0 0 C5.875 0.875 5.875 0.875 7 2 C7.04092937 4.33297433 7.04241723 6.66705225 7 9 C5.02 9.99 5.02 9.99 3 11 C2.8046875 8.94921875 2.609375 6.8984375 2.4140625 4.84765625 C2.27742188 4.23792969 2.14078125 3.62820312 2 3 C1.34 2.67 0.68 2.34 0 2 C0 1.34 0 0.68 0 0 Z " fill="#030205" transform="translate(105,223)"/>
<path d="M0 0 C3 1 3 1 3 1 Z M-3 1 C-2.01 1.33 -1.02 1.66 0 2 C3.60745026 3.1412951 6.9806189 3.10019381 10.75 3.0625 C11.92046875 3.05347656 13.0909375 3.04445312 14.296875 3.03515625 C15.18890625 3.02355469 16.0809375 3.01195312 17 3 C17 3.33 17 3.66 17 4 C15.33710938 4.19916016 15.33710938 4.19916016 13.640625 4.40234375 C12.1770673 4.58059757 10.71352651 4.75899028 9.25 4.9375 C8.52039063 5.02451172 7.79078125 5.11152344 7.0390625 5.20117188 C3.62415558 5.62027409 0.32396457 6.117274 -3 7 C-3.38218767 5.34385343 -3.71395102 3.67542976 -4 2 C-3.67 1.67 -3.34 1.34 -3 1 Z " fill="#221A03" transform="translate(154,244)"/>
<path d="M0 0 C0.5534764 2.07553648 1 3.84365964 1 6 C6.94 6 12.88 6 19 6 C19 6.33 19 6.66 19 7 C11.41 7 3.82 7 -4 7 C-2 2 -2 2 0 0 Z " fill="#B97AE2" transform="translate(123,99)"/>
<path d="M0 0 C14.99491649 -0.56862745 14.99491649 -0.56862745 22 3 C23.03017628 3.96888433 24.03847705 4.96294956 25 6 C23.35 6.33 21.7 6.66 20 7 C20 6.01 20 5.02 20 4 C13.35751464 2.08389845 6.88940671 1.43632909 0 1 C0 0.67 0 0.34 0 0 Z " fill="#DBC531" transform="translate(159,248)"/>
<path d="M0 0 C0.33 0 0.66 0 1 0 C1.05429278 2.70860665 1.09381211 5.41610901 1.125 8.125 C1.15013672 9.26582031 1.15013672 9.26582031 1.17578125 10.4296875 C1.21546246 15.03270731 0.75907577 18.66464004 -1 23 C-1.33 23 -1.66 23 -2 23 C-1.85775413 20.47891897 -1.71129879 17.95819597 -1.5625 15.4375 C-1.52318359 14.73302734 -1.48386719 14.02855469 -1.44335938 13.30273438 C-1.17481721 8.8201459 -0.69383803 4.43706503 0 0 Z " fill="#A56DD7" transform="translate(87,160)"/>
<path d="M0 0 C1.72985242 0.11512153 3.45888751 0.24255677 5.1875 0.375 C6.15042969 0.44460937 7.11335937 0.51421875 8.10546875 0.5859375 C11.01508938 1.00215853 13.32890774 1.79874096 16 3 C15.34 4.32 14.68 5.64 14 7 C13.01 7 12.02 7 11 7 C11.66 6.34 12.32 5.68 13 5 C8.71 3.68 4.42 2.36 0 1 C0 0.67 0 0.34 0 0 Z " fill="#340607" transform="translate(210,22)"/>
<path d="M0 0 C0.99 0.66 1.98 1.32 3 2 C3 2.99 3 3.98 3 5 C0 7.1875 0 7.1875 -3 9 C-3.66 7.68 -4.32 6.36 -5 5 C-3.35 3.35 -1.7 1.7 0 0 Z " fill="#0E0B02" transform="translate(148,247)"/>
<path d="M0 0 C0.33 0 0.66 0 1 0 C1.08126087 2.08268593 1.13930839 4.16628658 1.1875 6.25 C1.23970703 7.99023438 1.23970703 7.99023438 1.29296875 9.765625 C0.97982934 13.22268407 0.34290892 14.51565563 -2 17 C-2.05383848 14.54137599 -2.09359038 12.0839245 -2.125 9.625 C-2.14175781 8.92632812 -2.15851563 8.22765625 -2.17578125 7.5078125 C-2.19344267 5.67102514 -2.10303261 3.83398037 -2 2 C-1.34 1.34 -0.68 0.68 0 0 Z " fill="#D6BB1D" transform="translate(111,170)"/>
<path d="M0 0 C5.53503556 0.46125296 10.45979952 1.63360745 15 5 C16 7.75 16 7.75 16 10 C15.5153125 9.60167969 15.030625 9.20335937 14.53125 8.79296875 C9.84798669 5.09138948 5.6824452 2.82650024 0 1 C0 0.67 0 0.34 0 0 Z " fill="#9A67C7" transform="translate(177,242)"/>
<path d="M0 0 C1.93395001 3.86790003 2.23289353 5.1500459 2.125 9.25 C2.10695312 10.14203125 2.08890625 11.0340625 2.0703125 11.953125 C2.03550781 12.96632813 2.03550781 12.96632813 2 14 C0.35 14.66 -1.3 15.32 -3 16 C-3.33 15.34 -3.66 14.68 -4 14 C-2.68 13.67 -1.36 13.34 0 13 C0 8.71 0 4.42 0 0 Z " fill="#AB72E2" transform="translate(252,293)"/>
<path d="M0 0 C0.33 0 0.66 0 1 0 C1 2.97 1 5.94 1 9 C-3.31586125 11.16205669 -6.55243225 11.06986614 -11.3125 10.625 C-12.56675781 10.51414063 -13.82101563 10.40328125 -15.11328125 10.2890625 C-16.06589844 10.19367188 -17.01851562 10.09828125 -18 10 C-18 9.67 -18 9.34 -18 9 C-16.85660156 8.93941406 -15.71320313 8.87882813 -14.53515625 8.81640625 C-13.04425695 8.73201572 -11.55337225 8.64736698 -10.0625 8.5625 C-9.30775391 8.52318359 -8.55300781 8.48386719 -7.77539062 8.44335938 C-4.08055813 8.55961976 -4.08055813 8.55961976 -1 7 C-0.63239269 4.67182036 -0.29758419 2.3381615 0 0 Z " fill="#9361BD" transform="translate(147,198)"/>
<path d="M0 0 C3.3 0.66 6.6 1.32 10 2 C7.42215154 4.64752004 5.08351902 6.94432065 2 9 C1.01 8.67 0.02 8.34 -1 8 C2.625 5 2.625 5 6 5 C6 4.34 6 3.68 6 3 C3.03 2.505 3.03 2.505 0 2 C0 1.34 0 0.68 0 0 Z " fill="#CB464B" transform="translate(214,24)"/>
<path d="M0 0 C0.33 0 0.66 0 1 0 C1 3.96 1 7.92 1 12 C-2.96 12 -6.92 12 -11 12 C-7.39338934 10.19669467 -4.91606575 9.53400897 -1 9 C-0.67 6.03 -0.34 3.06 0 0 Z " fill="#F8D923" transform="translate(138,188)"/>
<path d="M0 0 C3.9252025 3.70090521 6.94580156 7.54959656 10 12 C8.68 11.34 7.36 10.68 6 10 C6 9.34 6 8.68 6 8 C4.35 8 2.7 8 1 8 C0.02391783 5.07175348 -0.08226668 3.04386724 0 0 Z " fill="#A565CF" transform="translate(175,57)"/>
<path d="M0 0 C1 2 1 2 1 6 C0.34 6 -0.32 6 -1 6 C-1 6.66 -1 7.32 -1 8 C-2.65 8.66 -4.3 9.32 -6 10 C-4.6302836 6.00499382 -2.74277578 3.19990508 0 0 Z " fill="#E7CE23" transform="translate(146,255)"/>
<path d="M0 0 C0.33 0 0.66 0 1 0 C1.02693575 2.12493141 1.04636628 4.24995912 1.0625 6.375 C1.07410156 7.55835938 1.08570313 8.74171875 1.09765625 9.9609375 C1 13 1 13 0 15 C-0.66 15 -1.32 15 -2 15 C-2.33 14.01 -2.66 13.02 -3 12 C-2.34 12 -1.68 12 -1 12 C-1.020625 10.7625 -1.04125 9.525 -1.0625 8.25 C-1.06766681 5.3359175 -0.93015558 2.79046673 0 0 Z " fill="#292627" transform="translate(274,131)"/>
<path d="M0 0 C3.28788824 3.11016455 5.83735988 6.01618925 8 10 C6.68 10 5.36 10 4 10 C4 10.66 4 11.32 4 12 C2.68 11.34 1.36 10.68 0 10 C0.99 9.67 1.98 9.34 3 9 C2.30058404 5.85262818 1.23921302 2.97411124 0 0 Z " fill="#9E64C9" transform="translate(186,71)"/>
<path d="M0 0 C5.28 0 10.56 0 16 0 C16 0.66 16 1.32 16 2 C16.66 2 17.32 2 18 2 C18 2.66 18 3.32 18 4 C16.88625 3.690625 15.7725 3.38125 14.625 3.0625 C9.79490988 1.84199336 4.95709931 1.38600363 0 1 C0 0.67 0 0.34 0 0 Z " fill="#CE4144" transform="translate(177,28)"/>
<path d="M0 0 C-1.78881736 1.00508801 -3.58114696 2.00392736 -5.375 3 C-6.37273437 3.556875 -7.37046875 4.11375 -8.3984375 4.6875 C-11 6 -11 6 -13 6 C-13 5.34 -13 4.68 -13 4 C-12.01 4 -11.02 4 -10 4 C-9.67 3.01 -9.34 2.02 -9 1 C-5.53568007 -0.87260537 -3.70820267 -1.10692617 0 0 Z " fill="#A671D4" transform="translate(249,310)"/>
<path d="M0 0 C-1.98 0.66 -3.96 1.32 -6 2 C-6 2.99 -6 3.98 -6 5 C-7.98 5 -9.96 5 -12 5 C-5.5 -1.96428571 -5.5 -1.96428571 0 0 Z " fill="#E2CA2A" transform="translate(159,250)"/>
<path d="M0 0 C0.66 0 1.32 0 2 0 C3.125 3.75 3.125 3.75 2 6 C4.31 6 6.62 6 9 6 C9 6.33 9 6.66 9 7 C7.54207116 7.05399736 6.08357288 7.09279177 4.625 7.125 C3.81289062 7.14820313 3.00078125 7.17140625 2.1640625 7.1953125 C0 7 0 7 -2 5 C-1.34 3.35 -0.68 1.7 0 0 Z " fill="#FAD918" transform="translate(138,321)"/>
<path d="M0 0 C5.94 0 11.88 0 18 0 C18 0.33 18 0.66 18 1 C16.95199219 1.03738281 15.90398437 1.07476562 14.82421875 1.11328125 C13.44527695 1.17894515 12.06637229 1.24539235 10.6875 1.3125 C9.65206055 1.34633789 9.65206055 1.34633789 8.59570312 1.38085938 C4.50793266 1.5836997 4.50793266 1.5836997 1.01953125 3.54296875 C0.68308594 4.02378906 0.34664062 4.50460937 0 5 C0 3.35 0 1.7 0 0 Z " fill="#11031E" transform="translate(233,252)"/>
<path d="M0 0 C0.99 0.33 1.98 0.66 3 1 C2.525625 1.598125 2.05125 2.19625 1.5625 2.8125 C-0.68630502 7.40006225 -0.743534 11.95027297 -1 17 C-1.33 17 -1.66 17 -2 17 C-2.05398987 14.72942623 -2.09278742 12.45848712 -2.125 10.1875 C-2.14820313 8.92292969 -2.17140625 7.65835938 -2.1953125 6.35546875 C-2 3 -2 3 0 0 Z " fill="#9361BC" transform="translate(228,248)"/>
<path d="M0 0 C0.66 0 1.32 0 2 0 C2.1953125 1.98567708 2.390625 3.97135417 2.5859375 5.95703125 C2.92665391 8.29988142 2.92665391 8.29988142 5 11 C3.0625 10.625 3.0625 10.625 1 10 C-0.60725635 6.78548731 -0.05748185 3.56387464 0 0 Z " fill="#343432" transform="translate(68,301)"/>
<path d="M0 0 C0 0.99 0 1.98 0 3 C-1.32 3.33 -2.64 3.66 -4 4 C-4 4.66 -4 5.32 -4 6 C-5.8125 6.625 -5.8125 6.625 -8 7 C-8.99 6.34 -9.98 5.68 -11 5 C-9.9275 4.54625 -8.855 4.0925 -7.75 3.625 C-5.11937683 2.49911463 -2.53999604 1.32079794 0 0 Z " fill="#A76FDC" transform="translate(110,242)"/>
<path d="M0 0 C3.96 0.33 7.92 0.66 12 1 C11.01 2.485 11.01 2.485 10 4 C6.7 3.01 3.4 2.02 0 1 C0 0.67 0 0.34 0 0 Z " fill="#9860C1" transform="translate(102,319)"/>
<path d="M0 0 C0.33 0 0.66 0 1 0 C0.6875 3.375 0.6875 3.375 0 7 C-3 9 -3 9 -5.1875 8.625 C-5.785625 8.41875 -6.38375 8.2125 -7 8 C-5.5459375 7.13375 -5.5459375 7.13375 -4.0625 6.25 C-0.90530708 4.35207138 -0.90530708 4.35207138 -0.125 1.75 C-0.08375 1.1725 -0.0425 0.595 0 0 Z " fill="#180827" transform="translate(255,302)"/>
<path d="M0 0 C0.33 1.32 0.66 2.64 1 4 C-0.65 5.32 -2.3 6.64 -4 8 C-4.66 7.67 -5.32 7.34 -6 7 C-4.02 4.69 -2.04 2.38 0 0 Z " fill="#9F63CB" transform="translate(158,58)"/>
<path d="M0 0 C3.5875213 1.33250791 6.8364623 2.830717 10 5 C10 5.66 10 6.32 10 7 C5.61308455 6.49381745 3.15608721 3.86917019 0 1 C0 0.67 0 0.34 0 0 Z " fill="#330607" transform="translate(199,14)"/>
<path d="M0 0 C4.455 1.98 4.455 1.98 9 4 C9 4.33 9 4.66 9 5 C2.25 4.125 2.25 4.125 0 3 C0 2.01 0 1.02 0 0 Z " fill="#1A0A2C" transform="translate(93,315)"/>
<path d="M0 0 C3.37503669 1.1858237 5.64722731 2.27573689 8 5 C5.69 4.67 3.38 4.34 1 4 C0.67 2.68 0.34 1.36 0 0 Z " fill="#180824" transform="translate(77,307)"/>
<path d="M0 0 C0.66 0 1.32 0 2 0 C1.67 0.99 1.34 1.98 1 3 C-3.29 3 -7.58 3 -12 3 C-12 2.67 -12 2.34 -12 2 C-11.21753906 1.93941406 -10.43507812 1.87882813 -9.62890625 1.81640625 C-8.61699219 1.73261719 -7.60507813 1.64882812 -6.5625 1.5625 C-5.55316406 1.48128906 -4.54382813 1.40007812 -3.50390625 1.31640625 C-1.06359221 1.26788532 -1.06359221 1.26788532 0 0 Z " fill="#110221" transform="translate(144,204)"/>
<path d="M0 0 C2.5 2.3125 2.5 2.3125 5 5 C5 5.99 5 6.98 5 8 C2.21611025 6.29374499 1.14615794 5.52373261 0.25 2.3125 C0.1675 1.549375 0.085 0.78625 0 0 Z " fill="#C2AC2A" transform="translate(185,254)"/>
<path d="M0 0 C0.33 1.32 0.66 2.64 1 4 C0.01 4.495 0.01 4.495 -1 5 C-1 5.66 -1 6.32 -1 7 C-1.99 7 -2.98 7 -4 7 C-2.92598892 4.08482708 -2.22189824 2.22189824 0 0 Z " fill="#A866CB" transform="translate(123,99)"/>
<path d="M0 0 C1.65 1.65 3.3 3.3 5 5 C4.67 5.66 4.34 6.32 4 7 C2.68 6.34 1.36 5.68 0 5 C0 3.35 0 1.7 0 0 Z " fill="#9E64C5" transform="translate(202,91)"/>
</svg>
